<svg width="30.000000" height="30.000000" viewBox="0 0 30 30" fill="none" xmlns="http://www.w3.org/2000/svg" xmlns:xlink="http://www.w3.org/1999/xlink">
	<desc>
			Created with Pixso.
	</desc>
	<defs/>
	<path id="Subtract" d="M15 0C20.1414 0 24.6785 2.58667 27.3813 6.52954L16.875 17.0359L10.7009 10.8616C9.96851 10.1294 8.78149 10.1294 8.04907 10.8616L0.410645 18.5002C0.14209 17.3772 0 16.2053 0 15C0 6.71582 6.71582 0 15 0ZM18.2009 21.0134L29.1641 10.05C29.7056 11.5999 30 13.2656 30 15C30 23.2842 23.2842 30 15 30C9.37134 30 4.46655 26.8997 1.90063 22.3135L9.375 14.8391L15.5491 21.0134C16.2815 21.7456 17.4685 21.7456 18.2009 21.0134Z" fill="#8794BA" fill-opacity="1.000000" fill-rule="evenodd"/>
</svg>
