<svg width="20.000000" height="20.000000" viewBox="0 0 20 20" fill="none" xmlns="http://www.w3.org/2000/svg" xmlns:xlink="http://www.w3.org/1999/xlink">
	<desc>
			Created with Pixso.
	</desc>
	<defs/>
	<path id="Instagram" d="M10 1.83325C12.6665 1.83325 13 1.83325 14.0835 1.91675C16.8335 2 18.0835 3.33325 18.1665 6C18.25 7.08325 18.25 7.33325 18.25 10C18.25 12.6667 18.25 13 18.1665 14C18.0835 16.6667 16.75 18 14.0835 18.0833C13 18.1667 12.75 18.1667 10 18.1667C7.3335 18.1667 7 18.1667 6 18.0833C3.25 18 2 16.6667 1.9165 14C1.8335 12.9167 1.8335 12.6667 1.8335 10C1.8335 7.33325 1.8335 7 1.9165 6C2 3.33325 3.3335 2 6 1.91675C7 1.83325 7.3335 1.83325 10 1.83325ZM10 0C7.25 0 6.9165 0 5.9165 0.083252C2.25 0.25 0.25 2.25 0.0834961 5.91675C0 6.91675 0 7.25 0 10C0 12.75 0 13.0833 0.0834961 14.0833C0.25 17.75 2.25 19.75 5.9165 19.9167C6.9165 20 7.25 20 10 20C12.75 20 13.0835 20 14.0835 19.9167C17.75 19.75 19.75 17.75 19.9165 14.0833C20 13.0833 20 12.75 20 10C20 7.25 20 6.91675 19.9165 5.91675C19.75 2.25 17.75 0.25 14.0835 0.083252C13.0835 0 12.75 0 10 0ZM10 4.83325C7.1665 4.83325 4.8335 7.16675 4.8335 10C4.8335 12.8333 7.1665 15.1667 10 15.1667C12.8335 15.1667 15.1665 12.8333 15.1665 10C15.1665 7.16675 12.8335 4.83325 10 4.83325ZM10 13.3333C8.1665 13.3333 6.6665 11.8333 6.6665 10C6.6665 8.16675 8.1665 6.66675 10 6.66675C11.8335 6.66675 13.3335 8.16675 13.3335 10C13.3335 11.8333 11.8335 13.3333 10 13.3333ZM15.3335 3.5C14.6665 3.5 14.1665 4 14.1665 4.66675C14.1665 5.33325 14.6665 5.83325 15.3335 5.83325C16 5.83325 16.5 5.33325 16.5 4.66675C16.5 4 16 3.5 15.3335 3.5Z" fill="#8794BA" fill-opacity="1.000000" fill-rule="nonzero"/>
</svg>
