<svg width="24.608887" height="20.000000" viewBox="0 0 24.6089 20" fill="none" xmlns="http://www.w3.org/2000/svg" xmlns:xlink="http://www.w3.org/1999/xlink">
	<desc>
			Created with Pixso.
	</desc>
	<defs/>
	<path id="Twitter" d="M7.73926 20C17.0259 20 22.1045 12.3062 22.1045 5.63477C22.1045 5.41602 22.1001 5.19873 22.0898 4.98193C23.0757 4.26953 23.9326 3.37988 24.6089 2.36792C23.7041 2.76978 22.7305 3.04053 21.7095 3.16235C22.7515 2.53735 23.5522 1.54834 23.9297 0.369385C22.9541 0.947998 21.8735 1.36841 20.7236 1.59497C19.8022 0.61377 18.4902 0 17.0381 0C14.2495 0 11.9883 2.26123 11.9883 5.04834C11.9883 5.44458 12.0332 5.82983 12.1191 6.19946C7.92334 5.98877 4.20264 3.97949 1.7124 0.924805C1.27832 1.67065 1.02881 2.53784 1.02881 3.46216C1.02881 5.21387 1.91992 6.76025 3.27539 7.66504C2.44727 7.63965 1.66943 7.41162 0.98877 7.0332C0.987793 7.0542 0.987793 7.07568 0.987793 7.09766C0.987793 9.54297 2.72852 11.5845 5.03809 12.0474C4.61426 12.1628 4.16797 12.2249 3.70752 12.2249C3.38232 12.2249 3.06592 12.1926 2.7583 12.134C3.40088 14.1396 5.26514 15.5996 7.4751 15.6406C5.74658 16.9951 3.56982 17.802 1.20459 17.802C0.797363 17.802 0.39502 17.7788 0 17.7322C2.23438 19.1641 4.88721 20 7.73926 20Z" fill="#8794BA" fill-opacity="1.000000" fill-rule="nonzero"/>
</svg>
