<svg width="996.000000" height="866.000000" viewBox="0 0 996 866" fill="none" xmlns="http://www.w3.org/2000/svg" xmlns:xlink="http://www.w3.org/1999/xlink">
	<desc>
			Created with Pixso.
	</desc>
	<defs/>
	<g opacity="0.070000">
		<mask id="mask2_2675" mask-type="alpha" maskUnits="userSpaceOnUse" x="0.000000" y="0.000000" width="996.000000" height="866.000000">
			<rect id="Прямоугольник 2" width="996.000000" height="866.000000" fill="#C4C4C4" fill-opacity="1.000000"/>
		</mask>
		<g mask="url(#mask2_2675)">
			<path id="Subtract" d="M996 0.00012207C1340.47 0.00012207 1644.46 173.306 1825.54 437.483L1121.62 1141.4L707.955 727.732C658.895 678.672 579.354 678.672 530.294 727.732L18.5088 1239.52C0.523438 1164.28 -9.00049 1085.75 -9.00049 1005C-9.00049 449.954 440.953 0.00012207 996 0.00012207ZM1210.46 1407.89L1944.99 673.356C1981.27 777.187 2001 888.79 2001 1005C2001 1560.05 1551.05 2010 996 2010C618.874 2010 290.263 1802.28 118.342 1495.01L619.125 994.223L1032.79 1407.89C1081.85 1456.95 1161.4 1456.95 1210.46 1407.89Z" fill="#8794BA" fill-opacity="1.000000" fill-rule="evenodd"/>
		</g>
	</g>
</svg>
