<svg width="134.000000" height="35.354980" viewBox="0 0 134 35.355" fill="none" xmlns="http://www.w3.org/2000/svg" xmlns:xlink="http://www.w3.org/1999/xlink">
	<desc>
			Created with Pixso.
	</desc>
	<defs/>
	<path id="accenture-4" d="M77.988 9.9209L85.7 7.05396L77.988 4.02002L77.988 0L91.188 5.32788L91.188 8.60791L77.988 13.9409L77.988 9.9209ZM5.08691 35.344C2.30005 35.344 0 33.95 0 30.8359L0 30.6699C0 26.897 3.28003 25.583 7.30005 25.583L9.18701 25.583L9.18701 24.843C9.18701 23.283 8.53296 22.3831 6.89307 22.3831C6.6106 22.3474 6.32397 22.3713 6.05151 22.4534C5.77905 22.5352 5.52661 22.6731 5.31055 22.8584C5.09473 23.0437 4.91992 23.2722 4.79736 23.5291C4.67505 23.7859 4.60791 24.0657 4.6001 24.3501L0.49292 24.3501C0.820068 20.8999 3.5271 19.2639 7.13403 19.2639C10.822 19.2639 13.5281 20.824 13.5281 24.678L13.5281 35.012L9.3479 35.012L9.3479 33.2051C8.86938 33.8855 8.22974 34.4368 7.48633 34.8101C6.74292 35.1831 5.91846 35.3667 5.08691 35.344ZM9.18701 29.8501L9.18701 28.376L7.46704 28.376C5.33398 28.376 4.26709 28.95 4.26709 30.343L4.26709 30.509C4.26709 31.5759 4.9209 32.3149 6.3999 32.3149C6.74854 32.3552 7.10181 32.3218 7.43677 32.2166C7.77148 32.1113 8.08057 31.9368 8.34326 31.7041C8.6062 31.4717 8.81714 31.1863 8.96265 30.8669C9.10791 30.5474 9.18433 30.2009 9.18701 29.8501ZM23.2871 35.344C19.02 35.344 15.906 32.718 15.906 27.47L15.906 27.229C15.906 21.9761 19.186 19.189 23.2871 19.189C26.814 19.189 29.6809 20.9951 30.0139 25.01L25.9141 25.01C25.667 23.5359 24.8469 22.55 23.373 22.55C21.5669 22.55 20.259 24.0239 20.259 27.0581L20.259 27.551C20.259 30.665 21.406 32.0591 23.373 32.0591C24.1057 32.0388 24.803 31.7388 25.3213 31.2205C25.8396 30.7019 26.1399 30.0049 26.1599 29.272L30.1001 29.272C29.8501 32.8 27.47 35.344 23.2891 35.344L23.2871 35.344ZM39.3621 35.344C35.095 35.344 31.981 32.718 31.981 27.47L31.981 27.229C31.981 21.9819 35.261 19.1941 39.3621 19.1941C42.8889 19.1941 45.7561 21 46.0891 25.0149L41.989 25.0149C41.7419 23.541 40.9221 22.5549 39.448 22.5549C37.6421 22.5549 36.334 24.0291 36.334 27.063L36.334 27.5559C36.334 30.6699 37.481 32.064 39.448 32.064C40.1807 32.0439 40.8779 31.7437 41.3965 31.2253C41.9148 30.707 42.2148 30.0098 42.2351 29.2771L46.1689 29.2771C45.9241 32.8 43.5449 35.344 39.364 35.344L39.3621 35.344ZM55.5171 35.344C51.0901 35.344 48.0559 32.718 48.0559 27.5559L48.0559 27.229C48.0559 22.062 51.2561 19.1941 55.437 19.1941C59.291 19.1941 62.491 21.3269 62.491 26.4939L62.491 28.3811L52.4851 28.3811C52.6509 31.168 53.8789 32.2351 55.6851 32.2351C56.3159 32.2844 56.9446 32.116 57.4666 31.7581C57.9883 31.4001 58.3718 30.8743 58.553 30.2681L62.573 30.2681C61.999 33.1299 59.6201 35.344 55.519 35.344L55.5171 35.344ZM52.4851 25.5L58.3059 25.5C58.2261 23.2061 57.1589 22.22 55.438 22.22C54.0449 22.3081 52.812 23.043 52.4851 25.5ZM65.113 19.6001L69.46 19.6001L69.46 21.8999C69.9038 21.0588 70.5808 20.3638 71.4099 19.8979C72.239 19.4321 73.1848 19.2156 74.134 19.2739C76.9209 19.2739 78.8081 20.9951 78.8081 24.688L78.8081 35.0171L74.4609 35.0171L74.4609 25.342C74.4609 23.5359 73.7209 22.7161 72.167 22.7161C71.7922 22.696 71.4177 22.7578 71.0691 22.8972C70.7207 23.0364 70.4067 23.25 70.1492 23.5229C69.8916 23.7959 69.6965 24.1216 69.5774 24.4775C69.4585 24.8335 69.4185 25.2109 69.46 25.584L69.46 35.012L65.113 35.012L65.113 19.6001ZM86.762 14.926L86.762 19.6001L89.7151 19.6001L89.7151 22.8L86.762 22.8L86.762 30.1001C86.762 31.2471 87.2549 31.821 88.322 31.821C88.8252 31.8416 89.3271 31.7576 89.7959 31.574L89.7959 34.9351C88.9968 35.1658 88.1677 35.2759 87.3359 35.262C83.9751 35.262 82.416 33.7019 82.416 30.5879L82.416 22.8L80.616 22.8L80.616 19.6001L82.4219 19.6001L82.4219 16.729L86.762 14.926ZM105.951 35.0149L101.6 35.0149L101.6 32.7229C101.185 33.5498 100.539 34.2385 99.7402 34.7046C98.9412 35.1709 98.0239 35.3948 97.1001 35.3491C94.313 35.3491 92.26 33.6279 92.26 30.021L92.26 19.6001L96.6001 19.6001L96.6001 29.4409C96.6001 31.2471 97.3401 32.0669 98.814 32.0669C99.1868 32.0796 99.5579 32.0125 99.9028 31.8706C100.248 31.7285 100.559 31.5149 100.814 31.2437C101.071 30.9724 101.266 30.6499 101.388 30.2974C101.51 29.9448 101.555 29.5703 101.521 29.199L101.521 19.6819L105.868 19.6819L105.868 35.0171L105.951 35.0149ZM109.151 19.6001L113.5 19.6001L113.5 22.468C113.846 21.5247 114.489 20.7192 115.331 20.1721C116.174 19.625 117.172 19.366 118.174 19.4341L118.174 23.7C115.221 23.7 113.5 24.6001 113.5 27.146L113.5 35.1001L109.153 35.1001L109.151 19.6001ZM126.951 35.342C122.524 35.342 119.49 32.7161 119.49 27.554L119.49 27.2271C119.49 22.0601 122.69 19.1919 126.871 19.1919C130.725 19.1919 133.925 21.325 133.925 26.4919L133.925 28.3789L123.912 28.3789C124.078 31.166 125.306 32.2329 127.112 32.2329C127.743 32.2825 128.372 32.114 128.894 31.7561C129.415 31.3982 129.799 30.8723 129.98 30.2661L134 30.2661C133.346 33.1279 130.966 35.342 126.946 35.342L126.951 35.342ZM123.832 25.5L129.653 25.5C129.573 23.2061 128.506 22.22 126.785 22.22C125.472 22.3081 124.239 23.043 123.832 25.5Z" fill="#8989A2" fill-opacity="1.000000" fill-rule="nonzero"/>
</svg>
