<svg width="130.425293" height="40.704590" viewBox="0 0 130.425 40.7046" fill="none" xmlns="http://www.w3.org/2000/svg" xmlns:xlink="http://www.w3.org/1999/xlink">
	<desc>
			Created with Pixso.
	</desc>
	<defs/>
	<path id="airbnb" d="M68.7307 10.2261C68.731 10.75 68.5759 11.2622 68.2849 11.698C67.9939 12.1338 67.5803 12.4734 67.0962 12.6741C66.6123 12.8748 66.0796 12.9272 65.5657 12.8252C65.0518 12.7231 64.5796 12.4709 64.209 12.1006C63.8384 11.73 63.5862 11.2581 63.4839 10.7441C63.3816 10.2302 63.4338 9.69751 63.6343 9.21338C63.8347 8.72949 64.1743 8.31567 64.6101 8.02441C65.0457 7.7334 65.5579 7.57812 66.0818 7.57812C66.4297 7.57715 66.7747 7.64502 67.0962 7.77783C67.418 7.91064 67.7102 8.10571 67.9563 8.35181C68.2024 8.5979 68.3977 8.88989 68.5305 9.21167C68.6633 9.5332 68.7314 9.87793 68.7307 10.2261ZM57.8108 15.564L57.8108 16.2161C57.3098 15.6736 56.6968 15.2468 56.0144 14.9653C55.332 14.6836 54.5964 14.554 53.8589 14.585C51.7461 14.6257 49.7336 15.4937 48.2539 17.0022C46.7744 18.5107 45.9453 20.5393 45.9453 22.6526C45.9453 24.7656 46.7744 26.7944 48.2539 28.3027C49.7336 29.8113 51.7461 30.6792 53.8589 30.72C54.6008 30.7561 55.3413 30.6245 56.0254 30.3352C56.7095 30.0459 57.3198 29.6064 57.8108 29.0491L57.8108 29.741C57.8091 29.8164 57.8225 29.8914 57.8506 29.9614C57.8787 30.0315 57.9207 30.095 57.9741 30.1484C58.0276 30.2017 58.0913 30.2437 58.1614 30.2715C58.2314 30.2996 58.3064 30.313 58.3818 30.311L61.6819 30.311L61.6819 14.991L58.3818 14.991C58.2314 14.9949 58.0881 15.0564 57.9819 15.1628C57.8757 15.2693 57.8145 15.4126 57.8108 15.563L57.8108 15.564ZM57.8108 25.3831C57.4331 25.9038 56.9368 26.3269 56.3628 26.6177C55.7891 26.9082 55.1541 27.0579 54.5107 27.054C53.9153 27.0823 53.3203 26.9895 52.7617 26.7812C52.2031 26.573 51.6926 26.2534 51.2612 25.842C50.8298 25.4307 50.4863 24.936 50.2517 24.3882C50.0171 23.8401 49.896 23.2502 49.896 22.6541C49.896 22.0579 50.0171 21.468 50.2517 20.9199C50.4863 20.3718 50.8298 19.8772 51.2612 19.4658C51.6926 19.0544 52.2031 18.7349 52.7617 18.5266C53.3203 18.3184 53.9153 18.2256 54.5107 18.2539C55.1526 18.259 55.7842 18.4126 56.3567 18.7024C56.9292 18.9924 57.427 19.4106 57.8108 19.925L57.8108 25.3831ZM64.1267 14.9929L68.0378 14.9929L68.0378 30.313L64.1267 30.313L64.1267 14.9919L64.1267 14.9929ZM122.555 14.585C121.817 14.554 121.081 14.6836 120.399 14.9653C119.716 15.2471 119.103 15.6738 118.602 16.2161L118.602 7.61597L114.691 7.61597L114.691 30.311L117.991 30.311C118.141 30.3079 118.285 30.2468 118.391 30.1404C118.497 30.0339 118.558 29.8904 118.561 29.74L118.561 29.0481C119.056 29.5999 119.667 30.0356 120.35 30.3245C121.033 30.6133 121.772 30.748 122.513 30.719C124.622 30.6777 126.631 29.8125 128.11 28.3083C129.589 26.8042 130.42 24.781 130.425 22.6716C130.431 20.5623 129.61 18.5344 128.139 17.0227C126.668 15.5107 124.664 14.6353 122.555 14.583L122.555 14.585ZM121.903 27.0129C121.259 27.0217 120.622 26.874 120.047 26.583C119.473 26.2922 118.977 25.8662 118.603 25.342L118.603 19.8821C119 19.3818 119.5 18.9734 120.07 18.6848C120.639 18.3965 121.265 18.2349 121.903 18.2109C123.07 18.2109 124.189 18.6746 125.014 19.4998C125.839 20.325 126.303 21.4441 126.303 22.6111C126.303 23.7778 125.839 24.8972 125.014 25.7222C124.189 26.5474 123.07 27.011 121.903 27.011L121.903 27.0129ZM112.654 21.228L112.654 30.355L108.742 30.355L108.742 21.676C108.742 19.1499 107.927 18.1311 105.728 18.1311C105.123 18.1489 104.527 18.292 103.98 18.5518C103.433 18.8113 102.946 19.1814 102.549 19.6389L102.549 30.314L98.6389 30.314L98.6389 14.9929L101.739 14.9929C101.889 14.9961 102.033 15.0571 102.139 15.1636C102.246 15.27 102.307 15.4136 102.31 15.564L102.31 16.2161C102.854 15.6743 103.503 15.2502 104.218 14.9697C104.933 14.6892 105.698 14.5581 106.465 14.585C108.023 14.5317 109.546 15.054 110.744 16.052C112.129 17.1931 112.659 18.6589 112.659 21.2271L112.654 21.228ZM89.1428 14.5859C88.4053 14.5549 87.6697 14.6848 86.9873 14.9666C86.3049 15.248 85.6919 15.6748 85.1909 16.217L85.1909 7.61694L81.2798 7.61694L81.2798 30.312L84.5798 30.312C84.7302 30.3088 84.8738 30.2478 84.9802 30.1414C85.0867 30.0349 85.1477 29.8914 85.1509 29.741L85.1509 29.0491C85.6462 29.6008 86.2573 30.0366 86.9404 30.3254C87.6235 30.6143 88.3618 30.749 89.1028 30.72C91.2117 30.6787 93.2207 29.8132 94.6995 28.3091C96.1785 26.8049 97.0095 24.7815 97.0149 22.6721C97.0203 20.5627 96.1995 18.5349 94.7283 17.0234C93.2571 15.5117 91.2524 14.636 89.1438 14.584L89.1428 14.5859ZM88.4907 27.0139C87.8467 27.0227 87.21 26.8752 86.6353 26.5842C86.0605 26.2932 85.5649 25.8674 85.1909 25.343L85.1909 19.8831C85.5876 19.3828 86.0881 18.9744 86.6577 18.6858C87.2273 18.3975 87.8528 18.2358 88.4907 18.2119C89.0862 18.1836 89.6814 18.2764 90.2397 18.4846C90.7983 18.6929 91.3088 19.0125 91.7402 19.4238C92.1719 19.8352 92.5154 20.3298 92.75 20.8779C92.9846 21.426 93.1057 22.0159 93.1057 22.6121C93.1057 23.2083 92.9846 23.7981 92.75 24.3462C92.5154 24.894 92.1719 25.3887 91.7402 25.8C91.3088 26.2114 90.7983 26.531 90.2397 26.7393C89.6814 26.9475 89.0862 27.0403 88.4907 27.012L88.4907 27.0139ZM77.8977 14.5859C78.502 14.5652 79.106 14.6326 79.6909 14.7861L79.6909 18.4121C79.6909 18.4121 76.4309 17.312 74.3909 19.635L74.3909 30.3511L70.4788 30.3511L70.4788 14.9919L73.7788 14.9919C73.9292 14.9951 74.0725 15.0562 74.1787 15.1626C74.2852 15.269 74.3459 15.4126 74.3489 15.563L74.3489 16.2151C75.2844 15.2444 76.5518 14.6621 77.8977 14.585L77.8977 14.5859ZM37.2759 28.929C37.0757 28.4399 36.8689 27.9109 36.6648 27.4619C36.3389 26.729 36.0127 26.0359 35.7278 25.384L35.6868 25.343C32.8748 19.231 29.8608 13.043 26.6868 6.927L26.5647 6.68213C26.2314 6.0481 25.9058 5.40967 25.5879 4.76709C25.186 3.96631 24.6938 3.2146 24.1208 2.52588C23.5056 1.73975 22.7197 1.10376 21.8225 0.666016C20.9253 0.228516 19.9402 0.000732422 18.9419 0C17.947 0.00366211 16.9651 0.224365 16.0642 0.646729C15.1636 1.06885 14.366 1.68262 13.7268 2.44507C13.1672 3.14331 12.676 3.8938 12.2598 4.68604C11.9419 5.32812 11.6162 5.96631 11.2827 6.60107L11.1599 6.84595C8.02271 12.957 4.9668 19.146 2.15991 25.262L2.1189 25.343C1.83374 25.9961 1.50781 26.688 1.18188 27.4209C0.978516 27.8696 0.774902 28.3586 0.570801 28.8879C0.0498047 30.2925 -0.118164 31.8035 0.0817871 33.2881C0.300293 34.7793 0.904053 36.1875 1.8335 37.3738C2.76318 38.5601 3.98608 39.4834 5.38184 40.052C6.42627 40.4905 7.54907 40.7124 8.68188 40.7041C9.03638 40.697 9.39038 40.6697 9.7417 40.6221C11.1794 40.4395 12.5657 39.9683 13.8169 39.2371C15.7141 38.104 17.4172 36.6733 18.8608 35C20.3159 36.6648 22.0203 38.094 23.9128 39.2371C25.1638 39.968 26.5493 40.4392 27.9868 40.6221C28.3381 40.6699 28.6921 40.6973 29.0469 40.7041C30.1799 40.7166 31.3035 40.4946 32.3469 40.052C33.7434 39.4846 34.967 38.5618 35.897 37.3752C36.8267 36.1887 37.4299 34.7798 37.6467 33.2881C37.9468 31.8298 37.8186 30.3159 37.2778 28.929L37.2759 28.929ZM18.9009 31.0481C16.9968 28.8496 15.5928 26.2642 14.7859 23.47C14.5872 22.6567 14.5457 21.813 14.6638 20.9839C14.7439 20.3701 14.9673 19.7837 15.3159 19.272C15.7246 18.7061 16.2642 18.2473 16.8887 17.9351C17.5132 17.6228 18.2039 17.4663 18.9019 17.479C19.6021 17.4529 20.2976 17.6033 20.9243 17.9165C21.551 18.23 22.0886 18.696 22.4878 19.272C22.8359 19.7839 23.0591 20.3704 23.1399 20.9839C23.2583 21.813 23.2168 22.6567 23.0178 23.47C22.1912 26.2559 20.7886 28.8369 18.9009 31.0459L18.9009 31.0481ZM35.1567 32.9629C35.0103 34.0127 34.5908 35.0054 33.9402 35.8423C33.2898 36.679 32.4309 37.3301 31.4497 37.731C30.4685 38.1306 29.4009 38.2708 28.3499 38.1379C27.2546 38.002 26.1992 37.6414 25.2498 37.0791C23.499 36.0195 21.9307 34.6848 20.6047 33.126C22.9055 30.5359 24.5908 27.4592 25.5349 24.126C25.7988 22.9912 25.8667 21.8196 25.7349 20.6621C25.584 19.6665 25.2078 18.7188 24.6348 17.8911C23.9863 16.9763 23.1235 16.2344 22.1221 15.7302C21.1206 15.2258 20.0107 14.9744 18.8899 14.998C17.7703 14.9834 16.6636 15.2388 15.6636 15.7422C14.6636 16.2458 13.7998 16.9829 13.1448 17.8911C12.572 18.7188 12.1958 19.6665 12.0449 20.6621C11.8716 21.8181 11.9397 22.9976 12.2449 24.126C12.8557 26.8149 14.5259 29.8711 17.1748 33.1709C15.8586 34.7393 14.2883 36.0754 12.5298 37.124C11.5806 37.687 10.5251 38.0476 9.42993 38.1831C8.37866 38.3008 7.31494 38.1611 6.32983 37.7759C5.35156 37.3716 4.49634 36.7178 3.84961 35.8799C3.20288 35.0417 2.78711 34.0488 2.6438 33C2.50928 31.9265 2.63525 30.8364 3.01074 29.822C3.13281 29.4141 3.33691 29.0071 3.54077 28.522C3.82593 27.8701 4.15186 27.177 4.47778 26.4839L4.5188 26.4031C7.32983 20.332 10.3447 14.1389 13.4819 8.10889L13.6038 7.86401C13.9297 7.25293 14.2559 6.60107 14.5818 5.98999C14.8894 5.34912 15.2727 4.74707 15.7229 4.19702C16.1245 3.72461 16.624 3.34497 17.1868 3.08472C17.7495 2.82446 18.3623 2.6897 18.9824 2.6897C19.6023 2.6897 20.2151 2.82446 20.7778 3.08472C21.3406 3.34497 21.8401 3.72461 22.2417 4.19702C22.6914 4.74756 23.0745 5.34937 23.3828 5.98999C23.7087 6.60107 24.0349 7.25293 24.3608 7.86401L24.4839 8.10889C27.5732 14.1636 30.5474 20.2754 33.4067 26.4441L33.4067 26.4849C33.7329 27.1379 34.0178 27.8711 34.3438 28.5229C34.5439 29.011 34.7507 29.4231 34.8738 29.823C35.2095 30.8328 35.3069 31.9065 35.1577 32.96L35.1567 32.9629Z" fill="#8989A2" fill-opacity="1.000000" fill-rule="nonzero"/>
</svg>
