<svg width="63.431885" height="56.439209" viewBox="0 0 63.4319 56.4392" fill="none" xmlns="http://www.w3.org/2000/svg" xmlns:xlink="http://www.w3.org/1999/xlink">
	<desc>
			Created with Pixso.
	</desc>
	<defs/>
	<path id="Path 684" d="M52.156 18.2935C51.4807 18.0623 50.8 17.8479 50.114 17.6506C50.228 17.1885 50.3333 16.7241 50.4299 16.2576C51.9761 8.75757 50.9651 2.7085 47.5139 0.718506C44.2051 -1.19043 38.793 0.799561 33.3269 5.55664C32.7883 6.02319 32.262 6.50635 31.748 7.00562C31.4033 6.67212 31.053 6.34863 30.697 6.03467C24.968 0.94751 19.2261 -1.19556 15.7781 0.800537C12.4719 2.7146 11.4929 8.40063 12.884 15.5085C13.0227 16.2126 13.179 16.9126 13.353 17.6086C12.541 17.8396 11.7529 18.0854 11.0049 18.3467C4.28906 20.6875 0 24.3577 0 28.1646C0 32.0967 4.6001 36.0396 11.6001 38.4307C12.1672 38.6233 12.739 38.802 13.3149 38.9666C13.1277 39.7166 12.9609 40.4717 12.8149 41.2314C11.488 48.2195 12.5239 53.7676 15.822 55.6697C19.228 57.6335 24.9441 55.6145 30.51 50.7495C30.95 50.365 31.3914 49.9583 31.834 49.5295C32.3906 50.0669 32.9624 50.5886 33.5491 51.0945C38.9399 55.7336 44.2649 57.6077 47.5601 55.7007C50.96 53.7305 52.0681 47.7705 50.6321 40.5186C50.5227 39.9646 50.396 39.3979 50.252 38.8186C50.6521 38.7 51.0454 38.5771 51.4319 38.4507C58.7041 36.0415 63.4319 32.1506 63.4319 28.1616C63.4319 24.3416 59.0049 20.6465 52.1531 18.2886L52.156 18.2935Z" fill="#8989A2" fill-opacity="1.000000" fill-rule="nonzero"/>
	<path id="Path 685" d="M50.5781 35.8826C50.2312 35.9976 49.8782 36.1086 49.5132 36.2156C48.6262 33.467 47.553 30.7822 46.301 28.1794C47.5056 25.6111 48.5371 22.9648 49.3882 20.2585C50.0371 20.4465 50.6672 20.6445 51.2742 20.8586C57.144 22.8796 60.7251 25.8677 60.7251 28.1697C60.7251 30.6216 56.8582 33.8057 50.5791 35.8865L50.5781 35.8826ZM47.9731 41.0457C48.5859 43.7942 48.6877 46.6321 48.2732 49.4175C47.895 51.4546 47.1353 52.8115 46.196 53.3555C44.196 54.5125 39.9211 53.0085 35.311 49.0415C34.7825 48.5869 34.249 48.1023 33.7112 47.5876C35.6335 45.4592 37.4099 43.2034 39.0281 40.8354C41.9192 40.5918 44.7898 40.1494 47.6201 39.5115C47.7495 40.0334 47.8638 40.5452 47.9631 41.0466L47.9731 41.0457ZM21.6252 53.1584C19.6721 53.8486 18.1162 53.8677 17.176 53.3257C15.176 52.1716 14.343 47.7166 15.4761 41.7405C15.6094 41.0347 15.7639 40.3325 15.9392 39.6345C18.7576 40.2402 21.6138 40.6538 24.488 40.8726C26.1538 43.2319 27.9727 45.4795 29.9331 47.6006C29.5391 47.9812 29.1362 48.3523 28.7241 48.7136C26.6501 50.6187 24.2434 52.1257 21.624 53.1597L21.6252 53.1584ZM12.4751 35.8706C9.78833 35.0256 7.27979 33.6934 5.0752 31.9407C3.50317 30.5896 2.71313 29.2515 2.71313 28.1655C2.71313 25.8555 6.15723 22.9097 11.9011 20.9065C12.6218 20.6565 13.3494 20.4275 14.0842 20.2195C14.937 22.9556 15.97 25.6321 17.176 28.2314C15.9551 30.8684 14.9094 33.583 14.0461 36.3577C13.5168 36.2068 12.9932 36.0435 12.4751 35.8677L12.4751 35.8706ZM15.5422 14.9885C14.3501 8.89551 15.1421 4.29956 17.134 3.14648C19.2561 1.91748 23.9492 3.66968 28.895 8.06152C29.2112 8.34253 29.5291 8.63647 29.8472 8.94067C27.9014 11.0479 26.0974 13.2817 24.447 15.6274C21.6001 15.8831 18.7725 16.3228 15.9822 16.9436C15.8201 16.2957 15.6748 15.6438 15.5461 14.9885L15.5422 14.9885ZM42.905 21.7456C42.2852 20.6743 41.6421 19.6169 40.9761 18.5735C43.0002 18.8286 44.9392 19.1736 46.7603 19.5845C46.1758 21.4382 45.4983 23.2612 44.7302 25.0466C44.144 23.9338 43.5359 22.834 42.905 21.7466L42.905 21.7456ZM31.7471 10.8765C33.0667 12.3152 34.3125 13.8193 35.4802 15.3835C32.9822 15.2656 30.4822 15.2656 27.9802 15.3835C29.2122 13.7585 30.4751 12.2485 31.7451 10.8835L31.7471 10.8765ZM20.5132 21.7637C19.8911 22.843 19.2942 23.9363 18.7222 25.0435C17.936 23.1726 17.2612 21.3325 16.7131 19.5586C18.5232 19.1536 20.4531 18.8225 22.4641 18.5715C21.7908 19.6216 21.1426 20.6882 20.519 21.7715L20.5132 21.7637ZM22.5132 37.9575C20.5496 37.7444 18.5984 37.4307 16.6672 37.0176C17.2271 35.2085 17.9172 33.3296 18.7231 31.4175C19.2971 32.5256 19.8972 33.6196 20.5232 34.6995C21.1611 35.8008 21.8252 36.887 22.5151 37.9575L22.5132 37.9575ZM31.8132 45.6465C30.5291 44.2605 29.248 42.7275 27.9961 41.0786C29.2107 41.1265 30.4478 41.1506 31.707 41.1506C33.0005 41.1506 34.2769 41.1223 35.5361 41.0657C34.3772 42.6553 33.1375 44.1846 31.822 45.6475L31.8132 45.6465ZM44.7561 31.3206C45.5623 33.1423 46.2732 35.0049 46.8862 36.9006C44.9324 37.3396 42.957 37.6765 40.968 37.9097C41.6389 36.8469 42.2881 35.771 42.916 34.6816C43.5542 33.575 44.1675 32.4546 44.7561 31.3206ZM40.5691 33.3276C39.6084 34.9941 38.5942 36.6309 37.5261 38.2375C35.644 38.3716 33.6992 38.4375 31.717 38.4375C29.7351 38.4375 27.8232 38.3765 25.9741 38.2566C24.8789 36.6565 23.8455 35.0173 22.874 33.3386C21.9075 31.6719 21.0054 29.9683 20.1682 28.2275C21.0027 26.4895 21.9028 24.7849 22.8682 23.1135C23.8308 21.4429 24.8562 19.8096 25.9441 18.2136C27.8311 18.0706 29.7651 17.9966 31.7202 17.9966C33.675 17.9966 35.6201 18.0715 37.5071 18.2156C38.5833 19.8057 39.6018 21.4321 40.5632 23.0955C41.5244 24.7588 42.436 26.4556 43.2981 28.1855C42.4507 29.929 41.5422 31.6406 40.572 33.3206L40.5691 33.3276ZM46.1592 3.06567C48.2832 4.29053 49.1091 9.23047 47.7751 15.7095C47.6877 16.1316 47.5928 16.552 47.4902 16.9705C44.6956 16.3372 41.8621 15.8896 39.0081 15.6306C37.3733 13.282 35.5818 11.0461 33.6462 8.93848C34.1216 8.48047 34.6079 8.03467 35.1052 7.60059C39.7881 3.52466 44.165 1.91553 46.1602 3.06567L46.1592 3.06567Z" fill="#FFFFFF" fill-opacity="1.000000" fill-rule="nonzero"/>
	<path id="Path 686" d="M31.7173 22.5015C32.8376 22.5015 33.9329 22.8337 34.8645 23.4563C35.7961 24.0786 36.5222 24.9634 36.9509 25.9985C37.3799 27.0337 37.4919 28.1729 37.2734 29.2717C37.0549 30.3706 36.5154 31.3799 35.7229 32.1721C34.9307 32.9646 33.9214 33.5039 32.8225 33.7227C31.7236 33.9412 30.5845 33.8291 29.5493 33.4001C28.5142 32.9714 27.6294 32.2454 27.0071 31.3137C26.3845 30.3821 26.0522 29.2869 26.0522 28.1665C26.0522 26.6641 26.6492 25.2231 27.7114 24.1606C28.7739 23.0984 30.2148 22.5015 31.7173 22.5015Z" fill="#8989A2" fill-opacity="1.000000" fill-rule="nonzero"/>
</svg>
