<svg width="54.000000" height="32.376709" viewBox="0 0 54 32.3767" fill="none" xmlns="http://www.w3.org/2000/svg" xmlns:xlink="http://www.w3.org/1999/xlink">
	<desc>
			Created with Pixso.
	</desc>
	<defs/>
	<path id="sky-4" d="M23.4861 0.735107C23.4939 0.63501 23.4795 0.534424 23.4436 0.440674C23.4077 0.346924 23.3516 0.262207 23.2791 0.193115C23.2065 0.123779 23.1194 0.0712891 23.0239 0.0397949C22.9287 0.00854492 22.8276 -0.00146484 22.728 0.0109863L20.0581 0.0109863C19.812 -0.0178223 19.5625 0.00976562 19.3286 0.0913086C19.0947 0.173096 18.8826 0.306641 18.7078 0.482422C18.5332 0.657959 18.4006 0.871094 18.3203 1.10547C18.24 1.3396 18.2139 1.58911 18.2439 1.83521L18.2439 24.7041C18.2368 24.8047 18.2522 24.9053 18.2886 24.9993C18.325 25.0933 18.3818 25.1777 18.4548 25.2473C18.5278 25.3167 18.6152 25.3689 18.7109 25.4006C18.8066 25.4321 18.908 25.4424 19.0081 25.4302L21.6721 25.4302C21.9182 25.459 22.1677 25.4314 22.4019 25.3496C22.636 25.2681 22.8484 25.134 23.0229 24.9583C23.1978 24.7822 23.3303 24.5691 23.4104 24.3345C23.4907 24.0999 23.5164 23.8501 23.4861 23.604L23.4861 0.735107ZM54 8.44897C54 8.02002 53.6831 7.80811 53.251 7.80811L50.011 7.80811C49.7578 7.7793 49.5027 7.83862 49.2881 7.97632C49.0737 8.11377 48.9133 8.32104 48.834 8.56299L44.2661 18.7012L37.8999 8.66919C37.7288 8.36475 37.469 8.11963 37.1553 7.96631C36.8413 7.81299 36.4883 7.75903 36.1431 7.81104L32.293 7.81104C31.9727 7.78809 31.6514 7.84155 31.356 7.96704C31.0603 8.09253 30.7988 8.28662 30.593 8.5332L23.8091 15.811L29.8879 24.677C29.9956 24.8984 30.1624 25.0854 30.3701 25.2175C30.5776 25.3496 30.8179 25.4214 31.064 25.425L34.6899 25.425C35.2329 25.425 35.5491 25.207 35.5491 24.751C35.5269 24.4841 35.4155 24.2322 35.2329 24.0361L29.8889 16.124L33.9419 11.7581L41.9529 23.6001L38.417 31.0811C38.3035 31.2805 38.2302 31.5005 38.2009 31.728C38.2009 32.1611 38.519 32.3691 38.9519 32.3691L42.167 32.3691C42.4197 32.3992 42.675 32.3406 42.8896 32.2036C43.104 32.0664 43.2642 31.8591 43.343 31.6172L53.7881 9.09717C53.9033 8.89844 53.9756 8.67749 54 8.44897ZM6.52295 13.9041C5.45801 13.6641 5.12305 13.363 5.12305 12.8262C5.12305 12.4082 5.4541 12.0752 6.41406 12.0752L14.187 12.0752C14.4326 12.1052 14.6816 12.0791 14.9158 11.9985C15.1497 11.9182 15.3623 11.7856 15.5376 11.6111C15.7129 11.4365 15.8459 11.2244 15.9272 10.9905C16.0083 10.7568 16.0352 10.5078 16.0061 10.2622L16.0061 8.56909C16.0186 8.46948 16.0088 8.36816 15.9775 8.27271C15.9463 8.17725 15.894 8.09009 15.825 8.01733C15.7556 7.94434 15.6711 7.88794 15.5774 7.85181C15.4836 7.81543 15.3831 7.80054 15.283 7.80811L6.18311 7.80811C2.12598 7.81104 0 10.1602 0 13.1511C0 15.8152 1.63599 17.437 4.90991 18.165L10.134 19.334C11.196 19.5691 11.5259 19.874 11.5259 20.418C11.5259 20.8301 11.197 21.1631 10.24 21.1631L2.13989 21.1631C1.89404 21.1318 1.64404 21.157 1.40918 21.2368C1.17456 21.3167 0.960938 21.4492 0.785156 21.624C0.609131 21.7988 0.475586 22.0115 0.394287 22.2458C0.312988 22.4802 0.286133 22.73 0.315918 22.9761L0.315918 24.666C0.303223 24.7656 0.312744 24.8667 0.343506 24.9622C0.374512 25.0576 0.42627 25.145 0.495117 25.218C0.563721 25.291 0.647949 25.3479 0.741211 25.3845C0.834473 25.4214 0.934814 25.4368 1.03491 25.4302L9.92407 25.4302C14.7241 25.4302 16.655 23.0801 16.655 20.2971C16.655 17.4211 14.998 15.7971 11.7471 15.074L6.52295 13.9041Z" fill="#8989A2" fill-opacity="1.000000" fill-rule="nonzero"/>
</svg>
