<svg width="600.000000" height="410.000000" viewBox="0 0 600 410" fill="none" xmlns="http://www.w3.org/2000/svg" xmlns:xlink="http://www.w3.org/1999/xlink">
	<desc>
			Created with Pixso.
	</desc>
	<defs/>
	<rect id="screen-01" width="600.000000" height="410.000000" fill="#FFFFFF" fill-opacity="0"/>
	<rect id="Rectangle 9" width="600.000000" height="410.000000" fill="#FFFFFF" fill-opacity="1.000000"/>
	<path id="Polygon 1" d="M110.015 139.5L110.015 266.5L220 330L329.985 266.5L329.985 139.5L220 76L110.015 139.5ZM112.015 140.655L112.015 265.345L220 327.691L327.985 265.345L327.985 140.655L220 78.3094L112.015 140.655Z" fill="#EEEEF7" fill-opacity="1.000000" fill-rule="evenodd"/>
	<path id="Polygon 2" d="M148.12 161.5L148.12 244.5L220 286L291.88 244.5L291.88 161.5L220 120L148.12 161.5ZM150.12 162.655L150.12 243.345L220 283.691L289.88 243.345L289.88 162.655L220 122.309L150.12 162.655Z" fill="#EEEEF7" fill-opacity="1.000000" fill-rule="evenodd"/>
	<path id="Polygon 5" d="M300.159 155.789L305.862 251.306L220.691 301.936L158.154 236.556L164.326 171.031L220.727 124.583L300.159 155.789ZM304 153L220 120L160.5 169L154 238L220 307L310 253.5L304 153Z" fill="#0088F0" fill-opacity="1.000000" fill-rule="evenodd"/>
	<path id="Polygon 4" d="M263.479 178.932L292.384 245L220.548 245L169.273 230.676L139.043 156.284L218.724 112.275L263.479 178.932ZM267 177L220 107L134 154.5L166.307 234L220 249L298.5 249L267 177Z" fill="#EF2A82" fill-opacity="1.000000" fill-rule="evenodd"/>
	<path id="Polygon 3" d="M194.885 188.5L194.885 217.5L220 232L245.115 217.5L245.115 188.5L220 174L194.885 188.5ZM196.885 189.655L196.885 216.345L220 229.691L243.115 216.345L243.115 189.655L220 176.309L196.885 189.655Z" fill="#EEEEF7" fill-opacity="1.000000" fill-rule="evenodd"/>
	<path id="34%" d="M460.508 137.252L463.184 137.252Q465.706 137.213 467.15 135.923Q468.594 134.633 468.594 132.439Q468.594 127.51 463.685 127.51Q461.375 127.51 459.998 128.829Q458.622 130.148 458.622 132.323L455.06 132.323Q455.06 128.992 457.495 126.788Q459.931 124.584 463.685 124.584Q467.651 124.584 469.903 126.682Q472.156 128.781 472.156 132.516Q472.156 134.345 470.972 136.058Q469.788 137.771 467.747 138.619Q470.057 139.35 471.319 141.044Q472.58 142.739 472.58 145.184Q472.58 148.957 470.115 151.171Q467.651 153.385 463.704 153.385Q459.758 153.385 457.284 151.248Q454.81 149.111 454.81 145.607L458.391 145.607Q458.391 147.821 459.835 149.15Q461.278 150.478 463.704 150.478Q466.284 150.478 467.651 149.13Q469.018 147.783 469.018 145.261Q469.018 142.816 467.516 141.506Q466.014 140.197 463.184 140.159L460.508 140.159L460.508 137.252ZM492.506 143.586L496.395 143.586L496.395 146.493L492.506 146.493L492.506 153L488.925 153L488.925 146.493L476.16 146.493L476.16 144.394L488.713 124.969L492.506 124.969L492.506 143.586ZM480.203 143.586L488.925 143.586L488.925 129.84L488.501 130.61L480.203 143.586ZM499.302 130.359Q499.302 127.837 500.909 126.201Q502.517 124.564 505.039 124.564Q507.599 124.564 509.188 126.211Q510.776 127.857 510.776 130.475L510.776 131.842Q510.776 134.383 509.168 135.991Q507.561 137.598 505.077 137.598Q502.574 137.598 500.938 135.991Q499.302 134.383 499.302 131.707L499.302 130.359ZM501.958 131.842Q501.958 133.343 502.806 134.316Q503.653 135.288 505.077 135.288Q506.444 135.288 507.282 134.345Q508.119 133.401 508.119 131.765L508.119 130.359Q508.119 128.858 507.291 127.876Q506.463 126.894 505.039 126.894Q503.614 126.894 502.786 127.876Q501.958 128.858 501.958 130.436L501.958 131.842ZM512.951 146.127Q512.951 143.605 514.559 141.978Q516.167 140.351 518.689 140.351Q521.211 140.351 522.828 141.968Q524.445 143.586 524.445 146.262L524.445 147.629Q524.445 150.151 522.837 151.777Q521.23 153.404 518.727 153.404Q516.224 153.404 514.588 151.797Q512.951 150.189 512.951 147.513L512.951 146.127ZM515.608 147.629Q515.608 149.15 516.455 150.122Q517.302 151.094 518.727 151.094Q520.113 151.094 520.941 150.141Q521.769 149.188 521.769 147.552L521.769 146.127Q521.769 144.606 520.932 143.643Q520.094 142.681 518.689 142.681Q517.322 142.681 516.465 143.634Q515.608 144.587 515.608 146.204L515.608 147.629ZM505.886 150.882L503.864 149.612L517.553 127.703L519.574 128.973L505.886 150.882Z" fill="#EF2A82" fill-opacity="1.000000" fill-rule="evenodd"/>
	<path id="option 1" d="M453.8 178.157Q453.8 176.76 454.349 175.644Q454.898 174.527 455.878 173.921Q456.858 173.314 458.115 173.314Q460.058 173.314 461.257 174.659Q462.457 176.004 462.457 178.236L462.457 178.351Q462.457 179.739 461.925 180.842Q461.394 181.945 460.405 182.561Q459.416 183.176 458.133 183.176Q456.199 183.176 455 181.831Q453.8 180.486 453.8 178.271L453.8 178.157ZM455.435 178.351Q455.435 179.933 456.168 180.891Q456.902 181.849 458.133 181.849Q459.372 181.849 460.102 180.877Q460.831 179.906 460.831 178.157Q460.831 176.593 460.088 175.622Q459.346 174.65 458.115 174.65Q456.911 174.65 456.173 175.608Q455.435 176.566 455.435 178.351ZM472.529 178.351Q472.529 180.521 471.536 181.849Q470.543 183.176 468.847 183.176Q467.115 183.176 466.122 182.077L466.122 186.656L464.496 186.656L464.496 173.49L465.981 173.49L466.061 174.545Q467.054 173.314 468.82 173.314Q470.534 173.314 471.532 174.606Q472.529 175.898 472.529 178.201L472.529 178.351ZM470.903 178.166Q470.903 176.558 470.218 175.626Q469.532 174.694 468.337 174.694Q466.86 174.694 466.122 176.004L466.122 180.548Q466.852 181.849 468.354 181.849Q469.523 181.849 470.213 180.921Q470.903 179.994 470.903 178.166ZM476.801 171.188L476.801 173.49L478.576 173.49L478.576 174.747L476.801 174.747L476.801 180.645Q476.801 181.216 477.038 181.501Q477.275 181.787 477.847 181.787Q478.128 181.787 478.62 181.682L478.62 183Q477.979 183.176 477.372 183.176Q476.282 183.176 475.729 182.517Q475.175 181.857 475.175 180.645L475.175 174.747L473.443 174.747L473.443 173.49L475.175 173.49L475.175 171.188L476.801 171.188ZM482.241 183L480.615 183L480.615 173.49L482.241 173.49L482.241 183ZM480.483 170.968Q480.483 170.572 480.725 170.3Q480.967 170.027 481.441 170.027Q481.916 170.027 482.162 170.3Q482.408 170.572 482.408 170.968Q482.408 171.363 482.162 171.627Q481.916 171.891 481.441 171.891Q480.967 171.891 480.725 171.627Q480.483 171.363 480.483 170.968ZM484.412 178.157Q484.412 176.76 484.961 175.644Q485.511 174.527 486.491 173.921Q487.471 173.314 488.728 173.314Q490.67 173.314 491.87 174.659Q493.069 176.004 493.069 178.236L493.069 178.351Q493.069 179.739 492.538 180.842Q492.006 181.945 491.017 182.561Q490.028 183.176 488.745 183.176Q486.812 183.176 485.612 181.831Q484.412 180.486 484.412 178.271L484.412 178.157ZM486.047 178.351Q486.047 179.933 486.781 180.891Q487.515 181.849 488.745 181.849Q489.984 181.849 490.714 180.877Q491.443 179.906 491.443 178.157Q491.443 176.593 490.701 175.622Q489.958 174.65 488.728 174.65Q487.523 174.65 486.785 175.608Q486.047 176.566 486.047 178.351ZM496.646 173.49L496.699 174.686Q497.789 173.314 499.547 173.314Q502.562 173.314 502.588 176.716L502.588 183L500.962 183L500.962 176.707Q500.953 175.679 500.492 175.187Q500.03 174.694 499.055 174.694Q498.264 174.694 497.666 175.116Q497.068 175.538 496.734 176.224L496.734 183L495.108 183L495.108 173.49L496.646 173.49ZM514.673 183L513.038 183L513.038 172.163L509.76 173.367L509.76 171.891L514.418 170.142L514.673 170.142L514.673 183Z" fill="#8794BA" fill-opacity="1.000000" fill-rule="evenodd"/>
	<path id="29%" d="M473.696 265L455.33 265L455.33 262.439L465.033 251.658Q467.189 249.213 468.007 247.683Q468.825 246.152 468.825 244.516Q468.825 242.321 467.497 240.915Q466.169 239.51 463.955 239.51Q461.298 239.51 459.825 241.021Q458.352 242.533 458.352 245.228L454.79 245.228Q454.79 241.358 457.284 238.971Q459.777 236.584 463.955 236.584Q467.863 236.584 470.134 238.634Q472.406 240.684 472.406 244.092Q472.406 248.231 467.131 253.949L459.623 262.093L473.696 262.093L473.696 265ZM491.119 252.679Q490.003 254.007 488.453 254.816Q486.903 255.624 485.055 255.624Q482.629 255.624 480.829 254.431Q479.029 253.237 478.047 251.071Q477.065 248.905 477.065 246.287Q477.065 243.476 478.134 241.223Q479.202 238.971 481.166 237.777Q483.13 236.584 485.748 236.584Q489.907 236.584 492.303 239.693Q494.7 242.802 494.7 248.174L494.7 249.213Q494.7 257.395 491.466 261.159Q488.232 264.923 481.705 265.019L481.012 265.019L481.012 262.016L481.763 262.016Q486.172 261.939 488.54 259.715Q490.908 257.492 491.119 252.679ZM485.633 252.679Q487.423 252.679 488.934 251.581Q490.446 250.484 491.139 248.867L491.139 247.442Q491.139 243.938 489.618 241.743Q488.097 239.549 485.767 239.549Q483.419 239.549 481.994 241.349Q480.569 243.149 480.569 246.094Q480.569 248.963 481.946 250.821Q483.322 252.679 485.633 252.679ZM499.302 242.359Q499.302 239.837 500.909 238.201Q502.517 236.564 505.039 236.564Q507.599 236.564 509.188 238.211Q510.776 239.857 510.776 242.475L510.776 243.842Q510.776 246.383 509.168 247.991Q507.561 249.598 505.077 249.598Q502.574 249.598 500.938 247.991Q499.302 246.383 499.302 243.707L499.302 242.359ZM501.958 243.842Q501.958 245.343 502.806 246.316Q503.653 247.288 505.077 247.288Q506.444 247.288 507.282 246.345Q508.119 245.401 508.119 243.765L508.119 242.359Q508.119 240.858 507.291 239.876Q506.463 238.894 505.039 238.894Q503.614 238.894 502.786 239.876Q501.958 240.858 501.958 242.436L501.958 243.842ZM512.951 258.127Q512.951 255.605 514.559 253.978Q516.167 252.351 518.689 252.351Q521.211 252.351 522.828 253.968Q524.445 255.586 524.445 258.262L524.445 259.629Q524.445 262.151 522.837 263.777Q521.23 265.404 518.727 265.404Q516.224 265.404 514.588 263.797Q512.951 262.189 512.951 259.513L512.951 258.127ZM515.608 259.629Q515.608 261.15 516.455 262.122Q517.302 263.094 518.727 263.094Q520.113 263.094 520.941 262.141Q521.769 261.188 521.769 259.552L521.769 258.127Q521.769 256.606 520.932 255.643Q520.094 254.681 518.689 254.681Q517.322 254.681 516.465 255.634Q515.608 256.587 515.608 258.204L515.608 259.629ZM505.886 262.882L503.864 261.612L517.553 239.703L519.574 240.973L505.886 262.882Z" fill="#0088F0" fill-opacity="1.000000" fill-rule="evenodd"/>
	<path id="option 2" d="M453.8 290.157Q453.8 288.76 454.349 287.644Q454.898 286.527 455.878 285.921Q456.858 285.314 458.115 285.314Q460.058 285.314 461.257 286.659Q462.457 288.004 462.457 290.236L462.457 290.351Q462.457 291.739 461.925 292.842Q461.394 293.945 460.405 294.561Q459.416 295.176 458.133 295.176Q456.199 295.176 455 293.831Q453.8 292.486 453.8 290.271L453.8 290.157ZM455.435 290.351Q455.435 291.933 456.168 292.891Q456.902 293.849 458.133 293.849Q459.372 293.849 460.102 292.877Q460.831 291.906 460.831 290.157Q460.831 288.593 460.088 287.622Q459.346 286.65 458.115 286.65Q456.911 286.65 456.173 287.608Q455.435 288.566 455.435 290.351ZM472.529 290.351Q472.529 292.521 471.536 293.849Q470.543 295.176 468.847 295.176Q467.115 295.176 466.122 294.077L466.122 298.656L464.496 298.656L464.496 285.49L465.981 285.49L466.061 286.545Q467.054 285.314 468.82 285.314Q470.534 285.314 471.532 286.606Q472.529 287.898 472.529 290.201L472.529 290.351ZM470.903 290.166Q470.903 288.558 470.218 287.626Q469.532 286.694 468.337 286.694Q466.86 286.694 466.122 288.004L466.122 292.548Q466.852 293.849 468.354 293.849Q469.523 293.849 470.213 292.921Q470.903 291.994 470.903 290.166ZM476.801 283.188L476.801 285.49L478.576 285.49L478.576 286.747L476.801 286.747L476.801 292.645Q476.801 293.216 477.038 293.501Q477.275 293.787 477.847 293.787Q478.128 293.787 478.62 293.682L478.62 295Q477.979 295.176 477.372 295.176Q476.282 295.176 475.729 294.517Q475.175 293.857 475.175 292.645L475.175 286.747L473.443 286.747L473.443 285.49L475.175 285.49L475.175 283.188L476.801 283.188ZM482.241 295L480.615 295L480.615 285.49L482.241 285.49L482.241 295ZM480.483 282.968Q480.483 282.572 480.725 282.3Q480.967 282.027 481.441 282.027Q481.916 282.027 482.162 282.3Q482.408 282.572 482.408 282.968Q482.408 283.363 482.162 283.627Q481.916 283.891 481.441 283.891Q480.967 283.891 480.725 283.627Q480.483 283.363 480.483 282.968ZM484.412 290.157Q484.412 288.76 484.961 287.644Q485.511 286.527 486.491 285.921Q487.471 285.314 488.728 285.314Q490.67 285.314 491.87 286.659Q493.069 288.004 493.069 290.236L493.069 290.351Q493.069 291.739 492.538 292.842Q492.006 293.945 491.017 294.561Q490.028 295.176 488.745 295.176Q486.812 295.176 485.612 293.831Q484.412 292.486 484.412 290.271L484.412 290.157ZM486.047 290.351Q486.047 291.933 486.781 292.891Q487.515 293.849 488.745 293.849Q489.984 293.849 490.714 292.877Q491.443 291.906 491.443 290.157Q491.443 288.593 490.701 287.622Q489.958 286.65 488.728 286.65Q487.523 286.65 486.785 287.608Q486.047 288.566 486.047 290.351ZM496.646 285.49L496.699 286.686Q497.789 285.314 499.547 285.314Q502.562 285.314 502.588 288.716L502.588 295L500.962 295L500.962 288.707Q500.953 287.679 500.492 287.187Q500.03 286.694 499.055 286.694Q498.264 286.694 497.666 287.116Q497.068 287.538 496.734 288.224L496.734 295L495.108 295L495.108 285.49L496.646 285.49ZM517.714 295L509.329 295L509.329 293.831L513.759 288.909Q514.743 287.793 515.117 287.094Q515.49 286.396 515.49 285.648Q515.49 284.646 514.884 284.005Q514.277 283.363 513.267 283.363Q512.054 283.363 511.381 284.053Q510.709 284.743 510.709 285.974L509.083 285.974Q509.083 284.207 510.221 283.117Q511.359 282.027 513.267 282.027Q515.051 282.027 516.088 282.963Q517.125 283.899 517.125 285.455Q517.125 287.345 514.717 289.955L511.289 293.673L517.714 293.673L517.714 295Z" fill="#8794BA" fill-opacity="1.000000" fill-rule="evenodd"/>
	<path id="18-24" d="M209.64 64L208.55 64L208.55 56.7754L206.364 57.5781L206.364 56.5938L209.47 55.4277L209.64 55.4277L209.64 64ZM217.989 57.6953Q217.989 58.334 217.652 58.832Q217.315 59.3301 216.741 59.6113Q217.409 59.8984 217.799 60.4492Q218.188 61 218.188 61.6973Q218.188 62.8047 217.441 63.4609Q216.694 64.1172 215.476 64.1172Q214.245 64.1172 213.504 63.458Q212.763 62.7988 212.763 61.6973Q212.763 61.0059 213.141 60.4492Q213.519 59.8926 214.187 59.6055Q213.618 59.3242 213.29 58.8262Q212.962 58.3281 212.962 57.6953Q212.962 56.6172 213.653 55.9844Q214.345 55.3516 215.476 55.3516Q216.601 55.3516 217.295 55.9844Q217.989 56.6172 217.989 57.6953ZM217.104 61.6738Q217.104 60.959 216.65 60.5078Q216.196 60.0566 215.464 60.0566Q214.731 60.0566 214.289 60.502Q213.847 60.9473 213.847 61.6738Q213.847 62.4004 214.277 62.8164Q214.708 63.2324 215.476 63.2324Q216.237 63.2324 216.671 62.8135Q217.104 62.3945 217.104 61.6738ZM215.476 56.2422Q214.837 56.2422 214.441 56.6377Q214.046 57.0332 214.046 57.7129Q214.046 58.3633 214.436 58.7646Q214.825 59.166 215.476 59.166Q216.126 59.166 216.516 58.7646Q216.905 58.3633 216.905 57.7129Q216.905 57.0625 216.501 56.6523Q216.097 56.2422 215.476 56.2422ZM221.921 60.8184L219.062 60.8184L219.062 59.9336L221.921 59.9336L221.921 60.8184ZM228.454 64L222.864 64L222.864 63.2207L225.817 59.9395Q226.474 59.1953 226.723 58.7295Q226.972 58.2637 226.972 57.7656Q226.972 57.0977 226.567 56.6699Q226.163 56.2422 225.489 56.2422Q224.681 56.2422 224.232 56.7021Q223.784 57.1621 223.784 57.9824L222.7 57.9824Q222.7 56.8047 223.459 56.0781Q224.218 55.3516 225.489 55.3516Q226.679 55.3516 227.37 55.9756Q228.062 56.5996 228.062 57.6367Q228.062 58.8965 226.456 60.6367L224.171 63.1152L228.454 63.1152L228.454 64ZM234.179 61.1348L235.362 61.1348L235.362 62.0195L234.179 62.0195L234.179 64L233.089 64L233.089 62.0195L229.204 62.0195L229.204 61.3809L233.024 55.4688L234.179 55.4688L234.179 61.1348ZM230.435 61.1348L233.089 61.1348L233.089 56.9512L232.96 57.1855L230.435 61.1348Z" fill="#8794BA" fill-opacity="1.000000" fill-rule="evenodd"/>
	<path id="25-34" d="M352.667 142L347.077 142L347.077 141.221L350.03 137.939Q350.687 137.195 350.936 136.729Q351.185 136.264 351.185 135.766Q351.185 135.098 350.78 134.67Q350.376 134.242 349.702 134.242Q348.894 134.242 348.445 134.702Q347.997 135.162 347.997 135.982L346.913 135.982Q346.913 134.805 347.672 134.078Q348.431 133.352 349.702 133.352Q350.892 133.352 351.583 133.976Q352.274 134.6 352.274 135.637Q352.274 136.896 350.669 138.637L348.384 141.115L352.667 141.115L352.667 142ZM354.313 137.723L354.747 133.469L359.118 133.469L359.118 134.471L355.667 134.471L355.409 136.797Q356.036 136.428 356.833 136.428Q357.999 136.428 358.685 137.198Q359.37 137.969 359.37 139.281Q359.37 140.6 358.658 141.358Q357.946 142.117 356.669 142.117Q355.538 142.117 354.823 141.49Q354.108 140.863 354.009 139.756L355.034 139.756Q355.134 140.488 355.556 140.86Q355.978 141.232 356.669 141.232Q357.425 141.232 357.855 140.717Q358.286 140.201 358.286 139.293Q358.286 138.438 357.82 137.919Q357.354 137.4 356.581 137.4Q355.872 137.4 355.468 137.711L355.181 137.945L354.313 137.723ZM362.921 138.818L360.062 138.818L360.062 137.934L362.921 137.934L362.921 138.818ZM365.44 137.207L366.255 137.207Q367.022 137.195 367.462 136.803Q367.901 136.41 367.901 135.742Q367.901 134.242 366.407 134.242Q365.704 134.242 365.285 134.644Q364.866 135.045 364.866 135.707L363.782 135.707Q363.782 134.693 364.523 134.022Q365.265 133.352 366.407 133.352Q367.614 133.352 368.3 133.99Q368.985 134.629 368.985 135.766Q368.985 136.322 368.625 136.844Q368.265 137.365 367.644 137.623Q368.347 137.846 368.73 138.361Q369.114 138.877 369.114 139.621Q369.114 140.77 368.364 141.443Q367.614 142.117 366.413 142.117Q365.212 142.117 364.459 141.467Q363.706 140.816 363.706 139.75L364.796 139.75Q364.796 140.424 365.235 140.828Q365.675 141.232 366.413 141.232Q367.198 141.232 367.614 140.822Q368.03 140.412 368.03 139.645Q368.03 138.9 367.573 138.502Q367.116 138.104 366.255 138.092L365.44 138.092L365.44 137.207ZM375.179 139.135L376.362 139.135L376.362 140.02L375.179 140.02L375.179 142L374.089 142L374.089 140.02L370.204 140.02L370.204 139.381L374.024 133.469L375.179 133.469L375.179 139.135ZM371.435 139.135L374.089 139.135L374.089 134.951L373.96 135.186L371.435 139.135Z" fill="#8794BA" fill-opacity="1.000000" fill-rule="evenodd"/>
	<path id="35-44" d="M348.653 268.207L349.468 268.207Q350.235 268.195 350.675 267.803Q351.114 267.41 351.114 266.742Q351.114 265.242 349.62 265.242Q348.917 265.242 348.498 265.644Q348.079 266.045 348.079 266.707L346.995 266.707Q346.995 265.693 347.736 265.022Q348.478 264.352 349.62 264.352Q350.827 264.352 351.513 264.99Q352.198 265.629 352.198 266.766Q352.198 267.322 351.838 267.844Q351.478 268.365 350.856 268.623Q351.56 268.846 351.943 269.361Q352.327 269.877 352.327 270.621Q352.327 271.77 351.577 272.443Q350.827 273.117 349.626 273.117Q348.425 273.117 347.672 272.467Q346.919 271.816 346.919 270.75L348.009 270.75Q348.009 271.424 348.448 271.828Q348.888 272.232 349.626 272.232Q350.411 272.232 350.827 271.822Q351.243 271.412 351.243 270.645Q351.243 269.9 350.786 269.502Q350.329 269.104 349.468 269.092L348.653 269.092L348.653 268.207ZM354.313 268.723L354.747 264.469L359.118 264.469L359.118 265.471L355.667 265.471L355.409 267.797Q356.036 267.428 356.833 267.428Q357.999 267.428 358.685 268.198Q359.37 268.969 359.37 270.281Q359.37 271.6 358.658 272.358Q357.946 273.117 356.669 273.117Q355.538 273.117 354.823 272.49Q354.108 271.863 354.009 270.756L355.034 270.756Q355.134 271.488 355.556 271.86Q355.978 272.232 356.669 272.232Q357.425 272.232 357.855 271.717Q358.286 271.201 358.286 270.293Q358.286 269.438 357.82 268.919Q357.354 268.4 356.581 268.4Q355.872 268.4 355.468 268.711L355.181 268.945L354.313 268.723ZM362.921 269.818L360.062 269.818L360.062 268.934L362.921 268.934L362.921 269.818ZM368.44 270.135L369.624 270.135L369.624 271.02L368.44 271.02L368.44 273L367.351 273L367.351 271.02L363.466 271.02L363.466 270.381L367.286 264.469L368.44 264.469L368.44 270.135ZM364.696 270.135L367.351 270.135L367.351 265.951L367.222 266.186L364.696 270.135ZM375.179 270.135L376.362 270.135L376.362 271.02L375.179 271.02L375.179 273L374.089 273L374.089 271.02L370.204 271.02L370.204 270.381L374.024 264.469L375.179 264.469L375.179 270.135ZM371.435 270.135L374.089 270.135L374.089 265.951L373.96 266.186L371.435 270.135Z" fill="#8794BA" fill-opacity="1.000000" fill-rule="evenodd"/>
	<path id="45-54" d="M210.653 355.135L211.837 355.135L211.837 356.02L210.653 356.02L210.653 358L209.563 358L209.563 356.02L205.679 356.02L205.679 355.381L209.499 349.469L210.653 349.469L210.653 355.135ZM206.909 355.135L209.563 355.135L209.563 350.951L209.435 351.186L206.909 355.135ZM213.313 353.723L213.747 349.469L218.118 349.469L218.118 350.471L214.667 350.471L214.409 352.797Q215.036 352.428 215.833 352.428Q216.999 352.428 217.685 353.198Q218.37 353.969 218.37 355.281Q218.37 356.6 217.658 357.358Q216.946 358.117 215.669 358.117Q214.538 358.117 213.823 357.49Q213.108 356.863 213.009 355.756L214.034 355.756Q214.134 356.488 214.556 356.86Q214.978 357.232 215.669 357.232Q216.425 357.232 216.855 356.717Q217.286 356.201 217.286 355.293Q217.286 354.438 216.82 353.919Q216.354 353.4 215.581 353.4Q214.872 353.4 214.468 353.711L214.181 353.945L213.313 353.723ZM221.921 354.818L219.062 354.818L219.062 353.934L221.921 353.934L221.921 354.818ZM223.362 353.723L223.796 349.469L228.167 349.469L228.167 350.471L224.716 350.471L224.458 352.797Q225.085 352.428 225.882 352.428Q227.048 352.428 227.733 353.198Q228.419 353.969 228.419 355.281Q228.419 356.6 227.707 357.358Q226.995 358.117 225.718 358.117Q224.587 358.117 223.872 357.49Q223.157 356.863 223.058 355.756L224.083 355.756Q224.183 356.488 224.604 356.86Q225.026 357.232 225.718 357.232Q226.474 357.232 226.904 356.717Q227.335 356.201 227.335 355.293Q227.335 354.438 226.869 353.919Q226.403 353.4 225.63 353.4Q224.921 353.4 224.517 353.711L224.229 353.945L223.362 353.723ZM234.179 355.135L235.362 355.135L235.362 356.02L234.179 356.02L234.179 358L233.089 358L233.089 356.02L229.204 356.02L229.204 355.381L233.024 349.469L234.179 349.469L234.179 355.135ZM230.435 355.135L233.089 355.135L233.089 350.951L232.96 351.186L230.435 355.135Z" fill="#8794BA" fill-opacity="1.000000" fill-rule="evenodd"/>
	<path id="55-64" d="M65.5752 268.723L66.0088 264.469L70.3799 264.469L70.3799 265.471L66.9287 265.471L66.6709 267.797Q67.2979 267.428 68.0947 267.428Q69.2607 267.428 69.9463 268.198Q70.6318 268.969 70.6318 270.281Q70.6318 271.6 69.9199 272.358Q69.208 273.117 67.9307 273.117Q66.7998 273.117 66.085 272.49Q65.3701 271.863 65.2705 270.756L66.2959 270.756Q66.3955 271.488 66.8174 271.86Q67.2393 272.232 67.9307 272.232Q68.6865 272.232 69.1172 271.717Q69.5479 271.201 69.5479 270.293Q69.5479 269.438 69.082 268.919Q68.6162 268.4 67.8428 268.4Q67.1338 268.4 66.7295 268.711L66.4424 268.945L65.5752 268.723ZM72.3135 268.723L72.7471 264.469L77.1182 264.469L77.1182 265.471L73.667 265.471L73.4092 267.797Q74.0361 267.428 74.833 267.428Q75.999 267.428 76.6846 268.198Q77.3701 268.969 77.3701 270.281Q77.3701 271.6 76.6582 272.358Q75.9463 273.117 74.6689 273.117Q73.5381 273.117 72.8232 272.49Q72.1084 271.863 72.0088 270.756L73.0342 270.756Q73.1338 271.488 73.5557 271.86Q73.9775 272.232 74.6689 272.232Q75.4248 272.232 75.8555 271.717Q76.2861 271.201 76.2861 270.293Q76.2861 269.438 75.8203 268.919Q75.3545 268.4 74.5811 268.4Q73.8721 268.4 73.4678 268.711L73.1807 268.945L72.3135 268.723ZM80.9209 269.818L78.0615 269.818L78.0615 268.934L80.9209 268.934L80.9209 269.818ZM86.1182 264.463L86.1182 265.383L85.9189 265.383Q84.6533 265.406 83.9033 266.133Q83.1533 266.859 83.0361 268.178Q83.71 267.404 84.876 267.404Q85.9893 267.404 86.6543 268.189Q87.3193 268.975 87.3193 270.217Q87.3193 271.535 86.6016 272.326Q85.8838 273.117 84.6768 273.117Q83.4521 273.117 82.6904 272.177Q81.9287 271.236 81.9287 269.754L81.9287 269.338Q81.9287 266.982 82.9336 265.737Q83.9385 264.492 85.9248 264.463L86.1182 264.463ZM84.6943 268.307Q84.1377 268.307 83.6689 268.641Q83.2002 268.975 83.0186 269.479L83.0186 269.877Q83.0186 270.932 83.4932 271.576Q83.9678 272.221 84.6768 272.221Q85.4092 272.221 85.8281 271.682Q86.2471 271.143 86.2471 270.27Q86.2471 269.391 85.8223 268.849Q85.3975 268.307 84.6943 268.307ZM93.1787 270.135L94.3623 270.135L94.3623 271.02L93.1787 271.02L93.1787 273L92.0889 273L92.0889 271.02L88.2041 271.02L88.2041 270.381L92.0244 264.469L93.1787 264.469L93.1787 270.135ZM89.4346 270.135L92.0889 270.135L92.0889 265.951L91.96 266.186L89.4346 270.135Z" fill="#8794BA" fill-opacity="1.000000" fill-rule="evenodd"/>
	<path id="65+" d="M74.3232 133.463L74.3232 134.383L74.124 134.383Q72.8584 134.406 72.1084 135.133Q71.3584 135.859 71.2412 137.178Q71.915 136.404 73.0811 136.404Q74.1943 136.404 74.8594 137.189Q75.5244 137.975 75.5244 139.217Q75.5244 140.535 74.8066 141.326Q74.0889 142.117 72.8818 142.117Q71.6572 142.117 70.8955 141.177Q70.1338 140.236 70.1338 138.754L70.1338 138.338Q70.1338 135.982 71.1387 134.737Q72.1436 133.492 74.1299 133.463L74.3232 133.463ZM72.8994 137.307Q72.3428 137.307 71.874 137.641Q71.4053 137.975 71.2236 138.479L71.2236 138.877Q71.2236 139.932 71.6982 140.576Q72.1729 141.221 72.8818 141.221Q73.6143 141.221 74.0332 140.682Q74.4521 140.143 74.4521 139.27Q74.4521 138.391 74.0273 137.849Q73.6025 137.307 72.8994 137.307ZM77.3057 137.723L77.7393 133.469L82.1104 133.469L82.1104 134.471L78.6592 134.471L78.4014 136.797Q79.0283 136.428 79.8252 136.428Q80.9912 136.428 81.6768 137.198Q82.3623 137.969 82.3623 139.281Q82.3623 140.6 81.6504 141.358Q80.9385 142.117 79.6611 142.117Q78.5303 142.117 77.8154 141.49Q77.1006 140.863 77.001 139.756L78.0264 139.756Q78.126 140.488 78.5479 140.86Q78.9697 141.232 79.6611 141.232Q80.417 141.232 80.8477 140.717Q81.2783 140.201 81.2783 139.293Q81.2783 138.438 80.8125 137.919Q80.3467 137.4 79.5732 137.4Q78.8643 137.4 78.46 137.711L78.1729 137.945L77.3057 137.723ZM86.7627 137.424L89.1416 137.424L89.1416 138.449L86.7627 138.449L86.7627 141.145L85.6729 141.145L85.6729 138.449L83.2939 138.449L83.2939 137.424L85.6729 137.424L85.6729 134.934L86.7627 134.934L86.7627 137.424Z" fill="#8794BA" fill-opacity="1.000000" fill-rule="evenodd"/>
</svg>
