<svg width="600.000000" height="410.000000" viewBox="0 0 600 410" fill="none" xmlns="http://www.w3.org/2000/svg" xmlns:xlink="http://www.w3.org/1999/xlink">
	<desc>
			Created with Pixso.
	</desc>
	<defs/>
	<rect id="screen-03" width="600.000000" height="410.000000" fill="#FFFFFF" fill-opacity="0"/>
	<rect id="Rectangle 9" width="600.000000" height="410.000000" fill="#FFFFFF" fill-opacity="1.000000"/>
	<rect id="Rectangle 28" x="70.000000" y="102.000000" width="66.000000" height="52.000000" fill="#FFFFFF" fill-opacity="1.000000"/>
	<rect id="Rectangle 28" x="136.000000" y="102.000000" width="66.000000" height="52.000000" fill="#FFFFFF" fill-opacity="1.000000"/>
	<path id="6" d="M169.117 132L168.027 132L168.027 124.775L165.841 125.578L165.841 124.594L168.947 123.428L169.117 123.428L169.117 132Z" fill="#172755" fill-opacity="1.000000" fill-rule="evenodd"/>
	<rect id="Rectangle 28" x="202.000000" y="102.000000" width="66.000000" height="52.000000" fill="#FFFFFF" fill-opacity="1.000000"/>
	<path id="6" d="M237.144 132L231.554 132L231.554 131.221L234.507 127.939Q235.164 127.195 235.413 126.729Q235.662 126.264 235.662 125.766Q235.662 125.098 235.257 124.67Q234.853 124.242 234.179 124.242Q233.371 124.242 232.922 124.702Q232.474 125.162 232.474 125.982L231.39 125.982Q231.39 124.805 232.149 124.078Q232.908 123.352 234.179 123.352Q235.369 123.352 236.06 123.976Q236.751 124.6 236.751 125.637Q236.751 126.896 235.146 128.637L232.861 131.115L237.144 131.115L237.144 132Z" fill="#172755" fill-opacity="1.000000" fill-rule="evenodd"/>
	<rect id="Rectangle 28" x="268.000000" y="102.000000" width="66.000000" height="52.000000" fill="#FFFFFF" fill-opacity="1.000000"/>
	<path id="6" d="M299.13 127.207L299.945 127.207Q300.712 127.195 301.152 126.803Q301.591 126.41 301.591 125.742Q301.591 124.242 300.097 124.242Q299.394 124.242 298.975 124.644Q298.556 125.045 298.556 125.707L297.472 125.707Q297.472 124.693 298.213 124.022Q298.955 123.352 300.097 123.352Q301.304 123.352 301.99 123.99Q302.675 124.629 302.675 125.766Q302.675 126.322 302.315 126.844Q301.955 127.365 301.333 127.623Q302.037 127.846 302.42 128.361Q302.804 128.877 302.804 129.621Q302.804 130.77 302.054 131.443Q301.304 132.117 300.103 132.117Q298.902 132.117 298.149 131.467Q297.396 130.816 297.396 129.75L298.486 129.75Q298.486 130.424 298.925 130.828Q299.365 131.232 300.103 131.232Q300.888 131.232 301.304 130.822Q301.72 130.412 301.72 129.645Q301.72 128.9 301.263 128.502Q300.806 128.104 299.945 128.092L299.13 128.092L299.13 127.207Z" fill="#172755" fill-opacity="1.000000" fill-rule="evenodd"/>
	<rect id="Rectangle 28" x="334.000000" y="102.000000" width="66.000000" height="52.000000" fill="#FFFFFF" fill-opacity="1.000000"/>
	<path id="6" d="M368.13 129.135L369.314 129.135L369.314 130.02L368.13 130.02L368.13 132L367.041 132L367.041 130.02L363.156 130.02L363.156 129.381L366.976 123.469L368.13 123.469L368.13 129.135ZM364.386 129.135L367.041 129.135L367.041 124.951L366.912 125.186L364.386 129.135Z" fill="#172755" fill-opacity="1.000000" fill-rule="evenodd"/>
	<rect id="Rectangle 28" x="400.000000" y="102.000000" width="66.000000" height="52.000000" fill="#FFFFFF" fill-opacity="1.000000"/>
	<path id="6" d="M430.052 127.723L430.486 123.469L434.857 123.469L434.857 124.471L431.406 124.471L431.148 126.797Q431.775 126.428 432.572 126.428Q433.738 126.428 434.423 127.198Q435.109 127.969 435.109 129.281Q435.109 130.6 434.397 131.358Q433.685 132.117 432.408 132.117Q431.277 132.117 430.562 131.49Q429.847 130.863 429.748 129.756L430.773 129.756Q430.873 130.488 431.294 130.86Q431.716 131.232 432.408 131.232Q433.164 131.232 433.594 130.717Q434.025 130.201 434.025 129.293Q434.025 128.438 433.559 127.919Q433.093 127.4 432.32 127.4Q431.611 127.4 431.207 127.711L430.919 127.945L430.052 127.723Z" fill="#172755" fill-opacity="1.000000" fill-rule="evenodd"/>
	<rect id="Rectangle 28" x="466.000000" y="102.000000" width="66.000000" height="52.000000" fill="#FFFFFF" fill-opacity="1.000000"/>
	<path id="6" d="M499.808 123.463L499.808 124.383L499.609 124.383Q498.343 124.406 497.593 125.133Q496.843 125.859 496.726 127.178Q497.4 126.404 498.566 126.404Q499.679 126.404 500.344 127.189Q501.009 127.975 501.009 129.217Q501.009 130.535 500.292 131.326Q499.574 132.117 498.367 132.117Q497.142 132.117 496.38 131.177Q495.619 130.236 495.619 128.754L495.619 128.338Q495.619 125.982 496.624 124.737Q497.628 123.492 499.615 123.463L499.808 123.463ZM498.384 127.307Q497.828 127.307 497.359 127.641Q496.89 127.975 496.708 128.479L496.708 128.877Q496.708 129.932 497.183 130.576Q497.658 131.221 498.367 131.221Q499.099 131.221 499.518 130.682Q499.937 130.143 499.937 129.27Q499.937 128.391 499.512 127.849Q499.087 127.307 498.384 127.307Z" fill="#172755" fill-opacity="1.000000" fill-rule="evenodd"/>
	<rect id="Rectangle 28" x="70.000000" y="154.000000" width="66.000000" height="52.000000" fill="#FFFFFF" fill-opacity="1.000000"/>
	<path id="6" d="M105.062 176.078L101.529 184L100.392 184L103.914 176.359L99.2964 176.359L99.2964 175.469L105.062 175.469L105.062 176.078Z" fill="#172755" fill-opacity="1.000000" fill-rule="evenodd"/>
	<rect id="Rectangle 28" x="136.000000" y="154.000000" width="66.000000" height="52.000000" fill="#FFFFFF" fill-opacity="1.000000"/>
	<circle id="Ellipse 1" cx="168.500000" cy="179.500000" r="19.500000" fill="#0088F0" fill-opacity="1.000000"/>
	<path id="6" d="M170.728 177.695Q170.728 178.334 170.391 178.832Q170.054 179.33 169.48 179.611Q170.148 179.898 170.538 180.449Q170.927 181 170.927 181.697Q170.927 182.805 170.18 183.461Q169.433 184.117 168.214 184.117Q166.984 184.117 166.243 183.458Q165.501 182.799 165.501 181.697Q165.501 181.006 165.879 180.449Q166.257 179.893 166.925 179.605Q166.357 179.324 166.029 178.826Q165.701 178.328 165.701 177.695Q165.701 176.617 166.392 175.984Q167.083 175.352 168.214 175.352Q169.339 175.352 170.034 175.984Q170.728 176.617 170.728 177.695ZM169.843 181.674Q169.843 180.959 169.389 180.508Q168.935 180.057 168.203 180.057Q167.47 180.057 167.028 180.502Q166.585 180.947 166.585 181.674Q166.585 182.4 167.016 182.816Q167.447 183.232 168.214 183.232Q168.976 183.232 169.41 182.813Q169.843 182.395 169.843 181.674ZM168.214 176.242Q167.576 176.242 167.18 176.638Q166.785 177.033 166.785 177.713Q166.785 178.363 167.174 178.765Q167.564 179.166 168.214 179.166Q168.865 179.166 169.254 178.765Q169.644 178.363 169.644 177.713Q169.644 177.062 169.24 176.652Q168.835 176.242 168.214 176.242Z" fill="#EEEEF7" fill-opacity="1.000000" fill-rule="evenodd"/>
	<rect id="Rectangle 28" x="202.000000" y="154.000000" width="66.000000" height="52.000000" fill="#FFFFFF" fill-opacity="1.000000"/>
	<circle id="Ellipse 1" cx="234.500000" cy="179.500000" r="19.500000" fill="#0088F0" fill-opacity="1.000000"/>
	<path id="6" d="M235.708 180.25Q235.369 180.654 234.897 180.9Q234.425 181.146 233.863 181.146Q233.125 181.146 232.577 180.783Q232.029 180.42 231.73 179.761Q231.431 179.102 231.431 178.305Q231.431 177.449 231.756 176.764Q232.082 176.078 232.679 175.715Q233.277 175.352 234.074 175.352Q235.339 175.352 236.069 176.298Q236.798 177.244 236.798 178.879L236.798 179.195Q236.798 181.686 235.814 182.831Q234.83 183.977 232.843 184.006L232.632 184.006L232.632 183.092L232.861 183.092Q234.203 183.068 234.923 182.392Q235.644 181.715 235.708 180.25ZM234.039 180.25Q234.583 180.25 235.043 179.916Q235.503 179.582 235.714 179.09L235.714 178.656Q235.714 177.59 235.251 176.922Q234.789 176.254 234.08 176.254Q233.365 176.254 232.931 176.802Q232.498 177.35 232.498 178.246Q232.498 179.119 232.917 179.685Q233.335 180.25 234.039 180.25Z" fill="#EEEEF7" fill-opacity="1.000000" fill-rule="evenodd"/>
	<rect id="Rectangle 28" x="268.000000" y="154.000000" width="66.000000" height="52.000000" fill="#FFFFFF" fill-opacity="1.000000"/>
	<circle id="Ellipse 1" cx="300.500000" cy="179.500000" r="19.500000" fill="#0088F0" fill-opacity="1.000000"/>
	<path id="6" d="M297.248 184L296.158 184L296.158 176.775L293.972 177.578L293.972 176.594L297.078 175.428L297.248 175.428L297.248 184ZM305.773 180.361Q305.773 182.266 305.123 183.191Q304.472 184.117 303.089 184.117Q301.724 184.117 301.068 183.212Q300.412 182.307 300.388 180.508L300.388 179.061Q300.388 177.18 301.039 176.266Q301.689 175.352 303.078 175.352Q304.455 175.352 305.105 176.233Q305.755 177.115 305.773 178.955L305.773 180.361ZM304.689 178.879Q304.689 177.502 304.302 176.872Q303.916 176.242 303.078 176.242Q302.246 176.242 301.865 176.869Q301.484 177.496 301.472 178.797L301.472 180.531Q301.472 181.914 301.874 182.573Q302.275 183.232 303.089 183.232Q303.892 183.232 304.282 182.611Q304.671 181.99 304.689 180.654L304.689 178.879Z" fill="#EEEEF7" fill-opacity="1.000000" fill-rule="evenodd"/>
	<rect id="Rectangle 28" x="334.000000" y="154.000000" width="66.000000" height="52.000000" fill="#FFFFFF" fill-opacity="1.000000"/>
	<path id="6" d="M363.248 184L362.158 184L362.158 176.775L359.972 177.578L359.972 176.594L363.078 175.428L363.248 175.428L363.248 184ZM369.986 184L368.896 184L368.896 176.775L366.71 177.578L366.71 176.594L369.816 175.428L369.986 175.428L369.986 184Z" fill="#172755" fill-opacity="1.000000" fill-rule="evenodd"/>
	<rect id="Rectangle 28" x="400.000000" y="154.000000" width="66.000000" height="52.000000" fill="#FFFFFF" fill-opacity="1.000000"/>
	<path id="6" d="M429.248 184L428.158 184L428.158 176.775L425.972 177.578L425.972 176.594L429.078 175.428L429.248 175.428L429.248 184ZM438.013 184L432.423 184L432.423 183.221L435.376 179.939Q436.033 179.195 436.282 178.729Q436.531 178.264 436.531 177.766Q436.531 177.098 436.126 176.67Q435.722 176.242 435.048 176.242Q434.24 176.242 433.792 176.702Q433.343 177.162 433.343 177.982L432.259 177.982Q432.259 176.805 433.018 176.078Q433.777 175.352 435.048 175.352Q436.238 175.352 436.929 175.976Q437.621 176.6 437.621 177.637Q437.621 178.896 436.015 180.637L433.73 183.115L438.013 183.115L438.013 184Z" fill="#172755" fill-opacity="1.000000" fill-rule="evenodd"/>
	<rect id="Rectangle 28" x="466.000000" y="154.000000" width="66.000000" height="52.000000" fill="#FFFFFF" fill-opacity="1.000000"/>
	<path id="6" d="M495.248 184L494.158 184L494.158 176.775L491.972 177.578L491.972 176.594L495.078 175.428L495.248 175.428L495.248 184ZM500 179.207L500.814 179.207Q501.582 179.195 502.021 178.803Q502.46 178.41 502.46 177.742Q502.46 176.242 500.966 176.242Q500.263 176.242 499.844 176.644Q499.425 177.045 499.425 177.707L498.341 177.707Q498.341 176.693 499.083 176.022Q499.824 175.352 500.966 175.352Q502.173 175.352 502.859 175.99Q503.544 176.629 503.544 177.766Q503.544 178.322 503.184 178.844Q502.824 179.365 502.203 179.623Q502.906 179.846 503.29 180.361Q503.673 180.877 503.673 181.621Q503.673 182.77 502.923 183.443Q502.173 184.117 500.972 184.117Q499.771 184.117 499.018 183.467Q498.265 182.816 498.265 181.75L499.355 181.75Q499.355 182.424 499.794 182.828Q500.234 183.232 500.972 183.232Q501.757 183.232 502.173 182.822Q502.589 182.412 502.589 181.645Q502.589 180.9 502.132 180.502Q501.675 180.104 500.814 180.092L500 180.092L500 179.207Z" fill="#172755" fill-opacity="1.000000" fill-rule="evenodd"/>
	<rect id="Rectangle 28" x="70.000000" y="206.000000" width="66.000000" height="52.000000" fill="#FFFFFF" fill-opacity="1.000000"/>
	<path id="6" d="M99.2476 236L98.1577 236L98.1577 228.775L95.9722 229.578L95.9722 228.594L99.0776 227.428L99.2476 227.428L99.2476 236ZM107 233.135L108.183 233.135L108.183 234.02L107 234.02L107 236L105.91 236L105.91 234.02L102.025 234.02L102.025 233.381L105.845 227.469L107 227.469L107 233.135ZM103.255 233.135L105.91 233.135L105.91 228.951L105.781 229.186L103.255 233.135Z" fill="#172755" fill-opacity="1.000000" fill-rule="evenodd"/>
	<rect id="Rectangle 28" x="136.000000" y="206.000000" width="66.000000" height="52.000000" fill="#FFFFFF" fill-opacity="1.000000"/>
	<path id="6" d="M165.248 236L164.158 236L164.158 228.775L161.972 229.578L161.972 228.594L165.078 227.428L165.248 227.428L165.248 236ZM168.921 231.723L169.355 227.469L173.726 227.469L173.726 228.471L170.275 228.471L170.017 230.797Q170.644 230.428 171.441 230.428Q172.607 230.428 173.292 231.198Q173.978 231.969 173.978 233.281Q173.978 234.6 173.266 235.358Q172.554 236.117 171.277 236.117Q170.146 236.117 169.431 235.49Q168.716 234.863 168.617 233.756L169.642 233.756Q169.742 234.488 170.164 234.86Q170.585 235.232 171.277 235.232Q172.033 235.232 172.463 234.717Q172.894 234.201 172.894 233.293Q172.894 232.438 172.428 231.919Q171.962 231.4 171.189 231.4Q170.48 231.4 170.076 231.711L169.789 231.945L168.921 231.723Z" fill="#172755" fill-opacity="1.000000" fill-rule="evenodd"/>
	<rect id="Rectangle 28" x="202.000000" y="206.000000" width="66.000000" height="52.000000" fill="#FFFFFF" fill-opacity="1.000000"/>
	<path id="6" d="M231.248 236L230.158 236L230.158 228.775L227.972 229.578L227.972 228.594L231.078 227.428L231.248 227.428L231.248 236ZM238.677 227.463L238.677 228.383L238.478 228.383Q237.212 228.406 236.462 229.133Q235.712 229.859 235.595 231.178Q236.269 230.404 237.435 230.404Q238.548 230.404 239.213 231.189Q239.878 231.975 239.878 233.217Q239.878 234.535 239.161 235.326Q238.443 236.117 237.236 236.117Q236.011 236.117 235.25 235.177Q234.488 234.236 234.488 232.754L234.488 232.338Q234.488 229.982 235.493 228.737Q236.498 227.492 238.484 227.463L238.677 227.463ZM237.253 231.307Q236.697 231.307 236.228 231.641Q235.759 231.975 235.578 232.479L235.578 232.877Q235.578 233.932 236.052 234.576Q236.527 235.221 237.236 235.221Q237.968 235.221 238.387 234.682Q238.806 234.143 238.806 233.27Q238.806 232.391 238.381 231.849Q237.957 231.307 237.253 231.307Z" fill="#172755" fill-opacity="1.000000" fill-rule="evenodd"/>
	<rect id="Rectangle 28" x="268.000000" y="206.000000" width="66.000000" height="52.000000" fill="#FFFFFF" fill-opacity="1.000000"/>
	<path id="6" d="M297.248 236L296.158 236L296.158 228.775L293.972 229.578L293.972 228.594L297.078 227.428L297.248 227.428L297.248 236ZM305.931 228.078L302.398 236L301.261 236L304.783 228.359L300.166 228.359L300.166 227.469L305.931 227.469L305.931 228.078Z" fill="#172755" fill-opacity="1.000000" fill-rule="evenodd"/>
	<rect id="Rectangle 28" x="334.000000" y="206.000000" width="66.000000" height="52.000000" fill="#FFFFFF" fill-opacity="1.000000"/>
	<circle id="Ellipse 1" cx="366.500000" cy="231.500000" r="19.500000" fill="#EF2A82" fill-opacity="1.000000"/>
	<path id="6" d="M363.248 236L362.158 236L362.158 228.775L359.972 229.578L359.972 228.594L363.078 227.428L363.248 227.428L363.248 236ZM371.597 229.695Q371.597 230.334 371.26 230.832Q370.923 231.33 370.349 231.611Q371.017 231.898 371.407 232.449Q371.796 233 371.796 233.697Q371.796 234.805 371.049 235.461Q370.302 236.117 369.083 236.117Q367.853 236.117 367.112 235.458Q366.371 234.799 366.371 233.697Q366.371 233.006 366.749 232.449Q367.126 231.893 367.794 231.605Q367.226 231.324 366.898 230.826Q366.57 230.328 366.57 229.695Q366.57 228.617 367.261 227.984Q367.953 227.352 369.083 227.352Q370.208 227.352 370.903 227.984Q371.597 228.617 371.597 229.695ZM370.712 233.674Q370.712 232.959 370.258 232.508Q369.804 232.057 369.072 232.057Q368.339 232.057 367.897 232.502Q367.455 232.947 367.455 233.674Q367.455 234.4 367.885 234.816Q368.316 235.232 369.083 235.232Q369.845 235.232 370.279 234.813Q370.712 234.395 370.712 233.674ZM369.083 228.242Q368.445 228.242 368.049 228.638Q367.654 229.033 367.654 229.713Q367.654 230.363 368.043 230.765Q368.433 231.166 369.083 231.166Q369.734 231.166 370.124 230.765Q370.513 230.363 370.513 229.713Q370.513 229.062 370.109 228.652Q369.705 228.242 369.083 228.242Z" fill="#EEEEF7" fill-opacity="1.000000" fill-rule="evenodd"/>
	<rect id="Rectangle 28" x="400.000000" y="206.000000" width="66.000000" height="52.000000" fill="#FFFFFF" fill-opacity="1.000000"/>
	<path id="6" d="M429.248 236L428.158 236L428.158 228.775L425.972 229.578L425.972 228.594L429.078 227.428L429.248 227.428L429.248 236ZM436.578 232.25Q436.238 232.654 435.766 232.9Q435.294 233.146 434.732 233.146Q433.994 233.146 433.446 232.783Q432.898 232.42 432.599 231.761Q432.3 231.102 432.3 230.305Q432.3 229.449 432.625 228.764Q432.951 228.078 433.548 227.715Q434.146 227.352 434.943 227.352Q436.208 227.352 436.938 228.298Q437.667 229.244 437.667 230.879L437.667 231.195Q437.667 233.686 436.683 234.831Q435.699 235.977 433.712 236.006L433.501 236.006L433.501 235.092L433.73 235.092Q435.072 235.068 435.792 234.392Q436.513 233.715 436.578 232.25ZM434.908 232.25Q435.453 232.25 435.913 231.916Q436.373 231.582 436.583 231.09L436.583 230.656Q436.583 229.59 436.121 228.922Q435.658 228.254 434.949 228.254Q434.234 228.254 433.8 228.802Q433.367 229.35 433.367 230.246Q433.367 231.119 433.786 231.685Q434.205 232.25 434.908 232.25Z" fill="#172755" fill-opacity="1.000000" fill-rule="evenodd"/>
	<rect id="Rectangle 28" x="466.000000" y="206.000000" width="66.000000" height="52.000000" fill="#FFFFFF" fill-opacity="1.000000"/>
	<path id="6" d="M497.275 236L491.685 236L491.685 235.221L494.638 231.939Q495.294 231.195 495.543 230.729Q495.792 230.264 495.792 229.766Q495.792 229.098 495.388 228.67Q494.984 228.242 494.31 228.242Q493.501 228.242 493.053 228.702Q492.605 229.162 492.605 229.982L491.521 229.982Q491.521 228.805 492.28 228.078Q493.039 227.352 494.31 227.352Q495.5 227.352 496.191 227.976Q496.882 228.6 496.882 229.637Q496.882 230.896 495.277 232.637L492.992 235.115L497.275 235.115L497.275 236ZM503.773 232.361Q503.773 234.266 503.123 235.191Q502.472 236.117 501.089 236.117Q499.724 236.117 499.068 235.212Q498.412 234.307 498.388 232.508L498.388 231.061Q498.388 229.18 499.039 228.266Q499.689 227.352 501.078 227.352Q502.455 227.352 503.105 228.233Q503.755 229.115 503.773 230.955L503.773 232.361ZM502.689 230.879Q502.689 229.502 502.302 228.872Q501.916 228.242 501.078 228.242Q500.246 228.242 499.865 228.869Q499.484 229.496 499.472 230.797L499.472 232.531Q499.472 233.914 499.874 234.573Q500.275 235.232 501.089 235.232Q501.892 235.232 502.282 234.611Q502.671 233.99 502.689 232.654L502.689 230.879Z" fill="#172755" fill-opacity="1.000000" fill-rule="evenodd"/>
	<rect id="Rectangle 28" x="70.000000" y="258.000000" width="66.000000" height="52.000000" fill="#FFFFFF" fill-opacity="1.000000"/>
	<path id="6" d="M101.275 288L95.6851 288L95.6851 287.221L98.6382 283.939Q99.2944 283.195 99.5435 282.729Q99.7925 282.264 99.7925 281.766Q99.7925 281.098 99.3882 280.67Q98.9839 280.242 98.3101 280.242Q97.5015 280.242 97.0532 280.702Q96.605 281.162 96.605 281.982L95.521 281.982Q95.521 280.805 96.2798 280.078Q97.0386 279.352 98.3101 279.352Q99.4995 279.352 100.191 279.976Q100.882 280.6 100.882 281.637Q100.882 282.896 99.2769 284.637L96.9917 287.115L101.275 287.115L101.275 288ZM105.986 288L104.896 288L104.896 280.775L102.71 281.578L102.71 280.594L105.816 279.428L105.986 279.428L105.986 288Z" fill="#172755" fill-opacity="1.000000" fill-rule="evenodd"/>
	<rect id="Rectangle 28" x="136.000000" y="258.000000" width="66.000000" height="52.000000" fill="#FFFFFF" fill-opacity="1.000000"/>
	<path id="6" d="M167.275 288L161.685 288L161.685 287.221L164.638 283.939Q165.294 283.195 165.543 282.729Q165.792 282.264 165.792 281.766Q165.792 281.098 165.388 280.67Q164.984 280.242 164.31 280.242Q163.501 280.242 163.053 280.702Q162.605 281.162 162.605 281.982L161.521 281.982Q161.521 280.805 162.28 280.078Q163.039 279.352 164.31 279.352Q165.5 279.352 166.191 279.976Q166.882 280.6 166.882 281.637Q166.882 282.896 165.277 284.637L162.992 287.115L167.275 287.115L167.275 288ZM174.013 288L168.423 288L168.423 287.221L171.376 283.939Q172.033 283.195 172.282 282.729Q172.531 282.264 172.531 281.766Q172.531 281.098 172.126 280.67Q171.722 280.242 171.048 280.242Q170.24 280.242 169.792 280.702Q169.343 281.162 169.343 281.982L168.259 281.982Q168.259 280.805 169.018 280.078Q169.777 279.352 171.048 279.352Q172.238 279.352 172.929 279.976Q173.621 280.6 173.621 281.637Q173.621 282.896 172.015 284.637L169.73 287.115L174.013 287.115L174.013 288Z" fill="#172755" fill-opacity="1.000000" fill-rule="evenodd"/>
	<rect id="Rectangle 28" x="202.000000" y="258.000000" width="66.000000" height="52.000000" fill="#FFFFFF" fill-opacity="1.000000"/>
	<path id="6" d="M233.275 288L227.685 288L227.685 287.221L230.638 283.939Q231.294 283.195 231.543 282.729Q231.792 282.264 231.792 281.766Q231.792 281.098 231.388 280.67Q230.984 280.242 230.31 280.242Q229.501 280.242 229.053 280.702Q228.605 281.162 228.605 281.982L227.521 281.982Q227.521 280.805 228.28 280.078Q229.039 279.352 230.31 279.352Q231.5 279.352 232.191 279.976Q232.882 280.6 232.882 281.637Q232.882 282.896 231.277 284.637L228.992 287.115L233.275 287.115L233.275 288ZM236 283.207L236.814 283.207Q237.582 283.195 238.021 282.803Q238.46 282.41 238.46 281.742Q238.46 280.242 236.966 280.242Q236.263 280.242 235.844 280.644Q235.425 281.045 235.425 281.707L234.341 281.707Q234.341 280.693 235.083 280.022Q235.824 279.352 236.966 279.352Q238.173 279.352 238.859 279.99Q239.544 280.629 239.544 281.766Q239.544 282.322 239.184 282.844Q238.824 283.365 238.203 283.623Q238.906 283.846 239.29 284.361Q239.673 284.877 239.673 285.621Q239.673 286.77 238.923 287.443Q238.173 288.117 236.972 288.117Q235.771 288.117 235.018 287.467Q234.265 286.816 234.265 285.75L235.355 285.75Q235.355 286.424 235.794 286.828Q236.234 287.232 236.972 287.232Q237.757 287.232 238.173 286.822Q238.589 286.412 238.589 285.645Q238.589 284.9 238.132 284.502Q237.675 284.104 236.814 284.092L236 284.092L236 283.207Z" fill="#172755" fill-opacity="1.000000" fill-rule="evenodd"/>
	<rect id="Rectangle 28" x="268.000000" y="258.000000" width="66.000000" height="52.000000" fill="#FFFFFF" fill-opacity="1.000000"/>
	<path id="6" d="M299.275 288L293.685 288L293.685 287.221L296.638 283.939Q297.294 283.195 297.543 282.729Q297.792 282.264 297.792 281.766Q297.792 281.098 297.388 280.67Q296.984 280.242 296.31 280.242Q295.501 280.242 295.053 280.702Q294.605 281.162 294.605 281.982L293.521 281.982Q293.521 280.805 294.28 280.078Q295.039 279.352 296.31 279.352Q297.5 279.352 298.191 279.976Q298.882 280.6 298.882 281.637Q298.882 282.896 297.277 284.637L294.992 287.115L299.275 287.115L299.275 288ZM305 285.135L306.183 285.135L306.183 286.02L305 286.02L305 288L303.91 288L303.91 286.02L300.025 286.02L300.025 285.381L303.845 279.469L305 279.469L305 285.135ZM301.255 285.135L303.91 285.135L303.91 280.951L303.781 281.186L301.255 285.135Z" fill="#172755" fill-opacity="1.000000" fill-rule="evenodd"/>
	<rect id="Rectangle 28" x="334.000000" y="258.000000" width="66.000000" height="52.000000" fill="#FFFFFF" fill-opacity="1.000000"/>
	<path id="6" d="M365.275 288L359.685 288L359.685 287.221L362.638 283.939Q363.294 283.195 363.543 282.729Q363.792 282.264 363.792 281.766Q363.792 281.098 363.388 280.67Q362.984 280.242 362.31 280.242Q361.501 280.242 361.053 280.702Q360.605 281.162 360.605 281.982L359.521 281.982Q359.521 280.805 360.28 280.078Q361.039 279.352 362.31 279.352Q363.5 279.352 364.191 279.976Q364.882 280.6 364.882 281.637Q364.882 282.896 363.277 284.637L360.992 287.115L365.275 287.115L365.275 288ZM366.921 283.723L367.355 279.469L371.726 279.469L371.726 280.471L368.275 280.471L368.017 282.797Q368.644 282.428 369.441 282.428Q370.607 282.428 371.292 283.198Q371.978 283.969 371.978 285.281Q371.978 286.6 371.266 287.358Q370.554 288.117 369.277 288.117Q368.146 288.117 367.431 287.49Q366.716 286.863 366.617 285.756L367.642 285.756Q367.742 286.488 368.164 286.86Q368.585 287.232 369.277 287.232Q370.033 287.232 370.463 286.717Q370.894 286.201 370.894 285.293Q370.894 284.438 370.428 283.919Q369.962 283.4 369.189 283.4Q368.48 283.4 368.076 283.711L367.789 283.945L366.921 283.723Z" fill="#172755" fill-opacity="1.000000" fill-rule="evenodd"/>
	<rect id="Rectangle 28" x="400.000000" y="258.000000" width="66.000000" height="52.000000" fill="#FFFFFF" fill-opacity="1.000000"/>
	<path id="6" d="M431.275 288L425.685 288L425.685 287.221L428.638 283.939Q429.294 283.195 429.543 282.729Q429.792 282.264 429.792 281.766Q429.792 281.098 429.388 280.67Q428.984 280.242 428.31 280.242Q427.501 280.242 427.053 280.702Q426.605 281.162 426.605 281.982L425.521 281.982Q425.521 280.805 426.28 280.078Q427.039 279.352 428.31 279.352Q429.5 279.352 430.191 279.976Q430.882 280.6 430.882 281.637Q430.882 282.896 429.277 284.637L426.992 287.115L431.275 287.115L431.275 288ZM436.677 279.463L436.677 280.383L436.478 280.383Q435.212 280.406 434.462 281.133Q433.712 281.859 433.595 283.178Q434.269 282.404 435.435 282.404Q436.548 282.404 437.213 283.189Q437.878 283.975 437.878 285.217Q437.878 286.535 437.161 287.326Q436.443 288.117 435.236 288.117Q434.011 288.117 433.25 287.177Q432.488 286.236 432.488 284.754L432.488 284.338Q432.488 281.982 433.493 280.737Q434.498 279.492 436.484 279.463L436.677 279.463ZM435.253 283.307Q434.697 283.307 434.228 283.641Q433.759 283.975 433.578 284.479L433.578 284.877Q433.578 285.932 434.052 286.576Q434.527 287.221 435.236 287.221Q435.968 287.221 436.387 286.682Q436.806 286.143 436.806 285.27Q436.806 284.391 436.381 283.849Q435.957 283.307 435.253 283.307Z" fill="#172755" fill-opacity="1.000000" fill-rule="evenodd"/>
	<rect id="Rectangle 28" x="466.000000" y="258.000000" width="66.000000" height="52.000000" fill="#FFFFFF" fill-opacity="1.000000"/>
	<path id="6" d="M497.275 288L491.685 288L491.685 287.221L494.638 283.939Q495.294 283.195 495.543 282.729Q495.792 282.264 495.792 281.766Q495.792 281.098 495.388 280.67Q494.984 280.242 494.31 280.242Q493.501 280.242 493.053 280.702Q492.605 281.162 492.605 281.982L491.521 281.982Q491.521 280.805 492.28 280.078Q493.039 279.352 494.31 279.352Q495.5 279.352 496.191 279.976Q496.882 280.6 496.882 281.637Q496.882 282.896 495.277 284.637L492.992 287.115L497.275 287.115L497.275 288ZM503.931 280.078L500.398 288L499.261 288L502.783 280.359L498.166 280.359L498.166 279.469L503.931 279.469L503.931 280.078Z" fill="#172755" fill-opacity="1.000000" fill-rule="evenodd"/>
	<rect id="Rectangle 28" x="70.000000" y="310.000000" width="66.000000" height="52.000000" fill="#FFFFFF" fill-opacity="1.000000"/>
	<path id="6" d="M101.275 340L95.6851 340L95.6851 339.221L98.6382 335.939Q99.2944 335.195 99.5435 334.729Q99.7925 334.264 99.7925 333.766Q99.7925 333.098 99.3882 332.67Q98.9839 332.242 98.3101 332.242Q97.5015 332.242 97.0532 332.702Q96.605 333.162 96.605 333.982L95.521 333.982Q95.521 332.805 96.2798 332.078Q97.0386 331.352 98.3101 331.352Q99.4995 331.352 100.191 331.976Q100.882 332.6 100.882 333.637Q100.882 334.896 99.2769 336.637L96.9917 339.115L101.275 339.115L101.275 340ZM107.597 333.695Q107.597 334.334 107.26 334.832Q106.923 335.33 106.349 335.611Q107.017 335.898 107.407 336.449Q107.796 337 107.796 337.697Q107.796 338.805 107.049 339.461Q106.302 340.117 105.083 340.117Q103.853 340.117 103.112 339.458Q102.371 338.799 102.371 337.697Q102.371 337.006 102.749 336.449Q103.126 335.893 103.794 335.605Q103.226 335.324 102.898 334.826Q102.57 334.328 102.57 333.695Q102.57 332.617 103.261 331.984Q103.953 331.352 105.083 331.352Q106.208 331.352 106.903 331.984Q107.597 332.617 107.597 333.695ZM106.712 337.674Q106.712 336.959 106.258 336.508Q105.804 336.057 105.072 336.057Q104.339 336.057 103.897 336.502Q103.455 336.947 103.455 337.674Q103.455 338.4 103.885 338.816Q104.316 339.232 105.083 339.232Q105.845 339.232 106.279 338.813Q106.712 338.395 106.712 337.674ZM105.083 332.242Q104.445 332.242 104.049 332.638Q103.654 333.033 103.654 333.713Q103.654 334.363 104.043 334.765Q104.433 335.166 105.083 335.166Q105.734 335.166 106.124 334.765Q106.513 334.363 106.513 333.713Q106.513 333.062 106.109 332.652Q105.705 332.242 105.083 332.242Z" fill="#172755" fill-opacity="1.000000" fill-rule="evenodd"/>
	<rect id="Rectangle 28" x="136.000000" y="310.000000" width="66.000000" height="52.000000" fill="#FFFFFF" fill-opacity="1.000000"/>
	<path id="6" d="M167.275 340L161.685 340L161.685 339.221L164.638 335.939Q165.294 335.195 165.543 334.729Q165.792 334.264 165.792 333.766Q165.792 333.098 165.388 332.67Q164.984 332.242 164.31 332.242Q163.501 332.242 163.053 332.702Q162.605 333.162 162.605 333.982L161.521 333.982Q161.521 332.805 162.28 332.078Q163.039 331.352 164.31 331.352Q165.5 331.352 166.191 331.976Q166.882 332.6 166.882 333.637Q166.882 334.896 165.277 336.637L162.992 339.115L167.275 339.115L167.275 340ZM172.578 336.25Q172.238 336.654 171.766 336.9Q171.294 337.146 170.732 337.146Q169.994 337.146 169.446 336.783Q168.898 336.42 168.599 335.761Q168.3 335.102 168.3 334.305Q168.3 333.449 168.625 332.764Q168.951 332.078 169.548 331.715Q170.146 331.352 170.943 331.352Q172.208 331.352 172.938 332.298Q173.667 333.244 173.667 334.879L173.667 335.195Q173.667 337.686 172.683 338.831Q171.699 339.977 169.712 340.006L169.501 340.006L169.501 339.092L169.73 339.092Q171.072 339.068 171.792 338.392Q172.513 337.715 172.578 336.25ZM170.908 336.25Q171.453 336.25 171.913 335.916Q172.373 335.582 172.583 335.09L172.583 334.656Q172.583 333.59 172.121 332.922Q171.658 332.254 170.949 332.254Q170.234 332.254 169.8 332.802Q169.367 333.35 169.367 334.246Q169.367 335.119 169.786 335.685Q170.205 336.25 170.908 336.25Z" fill="#172755" fill-opacity="1.000000" fill-rule="evenodd"/>
	<rect id="Rectangle 28" x="202.000000" y="310.000000" width="66.000000" height="52.000000" fill="#FFFFFF" fill-opacity="1.000000"/>
	<path id="6" d="M229.261 335.207L230.076 335.207Q230.843 335.195 231.283 334.803Q231.722 334.41 231.722 333.742Q231.722 332.242 230.228 332.242Q229.525 332.242 229.106 332.644Q228.687 333.045 228.687 333.707L227.603 333.707Q227.603 332.693 228.344 332.022Q229.085 331.352 230.228 331.352Q231.435 331.352 232.121 331.99Q232.806 332.629 232.806 333.766Q232.806 334.322 232.446 334.844Q232.085 335.365 231.464 335.623Q232.167 335.846 232.551 336.361Q232.935 336.877 232.935 337.621Q232.935 338.77 232.185 339.443Q231.435 340.117 230.234 340.117Q229.033 340.117 228.28 339.467Q227.527 338.816 227.527 337.75L228.617 337.75Q228.617 338.424 229.056 338.828Q229.496 339.232 230.234 339.232Q231.019 339.232 231.435 338.822Q231.851 338.412 231.851 337.645Q231.851 336.9 231.394 336.502Q230.937 336.104 230.076 336.092L229.261 336.092L229.261 335.207ZM239.773 336.361Q239.773 338.266 239.123 339.191Q238.472 340.117 237.089 340.117Q235.724 340.117 235.068 339.212Q234.412 338.307 234.388 336.508L234.388 335.061Q234.388 333.18 235.039 332.266Q235.689 331.352 237.078 331.352Q238.455 331.352 239.105 332.233Q239.755 333.115 239.773 334.955L239.773 336.361ZM238.689 334.879Q238.689 333.502 238.302 332.872Q237.916 332.242 237.078 332.242Q236.246 332.242 235.865 332.869Q235.484 333.496 235.472 334.797L235.472 336.531Q235.472 337.914 235.874 338.573Q236.275 339.232 237.089 339.232Q237.892 339.232 238.282 338.611Q238.671 337.99 238.689 336.654L238.689 334.879Z" fill="#172755" fill-opacity="1.000000" fill-rule="evenodd"/>
	<rect id="Rectangle 28" x="268.000000" y="310.000000" width="66.000000" height="52.000000" fill="#FFFFFF" fill-opacity="1.000000"/>
	<path id="6" d="M295.261 335.207L296.076 335.207Q296.843 335.195 297.283 334.803Q297.722 334.41 297.722 333.742Q297.722 332.242 296.228 332.242Q295.525 332.242 295.106 332.644Q294.687 333.045 294.687 333.707L293.603 333.707Q293.603 332.693 294.344 332.022Q295.085 331.352 296.228 331.352Q297.435 331.352 298.121 331.99Q298.806 332.629 298.806 333.766Q298.806 334.322 298.446 334.844Q298.085 335.365 297.464 335.623Q298.167 335.846 298.551 336.361Q298.935 336.877 298.935 337.621Q298.935 338.77 298.185 339.443Q297.435 340.117 296.234 340.117Q295.033 340.117 294.28 339.467Q293.527 338.816 293.527 337.75L294.617 337.75Q294.617 338.424 295.056 338.828Q295.496 339.232 296.234 339.232Q297.019 339.232 297.435 338.822Q297.851 338.412 297.851 337.645Q297.851 336.9 297.394 336.502Q296.937 336.104 296.076 336.092L295.261 336.092L295.261 335.207ZM303.986 340L302.896 340L302.896 332.775L300.71 333.578L300.71 332.594L303.816 331.428L303.986 331.428L303.986 340Z" fill="#172755" fill-opacity="1.000000" fill-rule="evenodd"/>
	<rect id="Rectangle 28" x="334.000000" y="310.000000" width="66.000000" height="52.000000" fill="#FFFFFF" fill-opacity="1.000000"/>
	<rect id="Rectangle 28" x="400.000000" y="310.000000" width="66.000000" height="52.000000" fill="#FFFFFF" fill-opacity="1.000000"/>
	<rect id="Rectangle 28" x="466.000000" y="310.000000" width="66.000000" height="52.000000" fill="#FFFFFF" fill-opacity="1.000000"/>
	<path id="MON" d="M89.8027 61.4688L92.5918 68.4297L95.3809 61.4688L96.8398 61.4688L96.8398 70L95.7148 70L95.7148 66.6777L95.8203 63.0918L93.0195 70L92.1582 70L89.3633 63.1094L89.4746 66.6777L89.4746 70L88.3496 70L88.3496 61.4688L89.8027 61.4688ZM105.389 66.0098Q105.389 67.2637 104.967 68.1982Q104.545 69.1328 103.771 69.625Q102.998 70.1172 101.967 70.1172Q100.959 70.1172 100.18 69.6221Q99.4004 69.127 98.9697 68.21Q98.5391 67.293 98.5273 66.0859L98.5273 65.4707Q98.5273 64.2402 98.9551 63.2969Q99.3828 62.3535 100.165 61.8525Q100.947 61.3516 101.955 61.3516Q102.98 61.3516 103.763 61.8467Q104.545 62.3418 104.967 63.2822Q105.389 64.2227 105.389 65.4707L105.389 66.0098ZM104.27 65.459Q104.27 63.9414 103.66 63.1299Q103.051 62.3184 101.955 62.3184Q100.889 62.3184 100.276 63.1299Q99.6641 63.9414 99.6465 65.3828L99.6465 66.0098Q99.6465 67.4805 100.265 68.3213Q100.883 69.1621 101.967 69.1621Q103.057 69.1621 103.654 68.3682Q104.252 67.5742 104.27 66.0918L104.27 65.459ZM113.633 70L112.502 70L108.207 63.4258L108.207 70L107.076 70L107.076 61.4688L108.207 61.4688L112.514 68.0723L112.514 61.4688L113.633 61.4688L113.633 70Z" fill="#8794BA" fill-opacity="1.000000" fill-rule="evenodd"/>
	<path id="TUE" d="M163.004 62.3945L160.262 62.3945L160.262 70L159.143 70L159.143 62.3945L156.406 62.3945L156.406 61.4688L163.004 61.4688L163.004 62.3945ZM170.275 61.4688L170.275 67.2695Q170.27 68.4766 169.517 69.2441Q168.764 70.0117 167.475 70.1055L167.176 70.1172Q165.775 70.1172 164.943 69.3613Q164.111 68.6055 164.1 67.2812L164.1 61.4688L165.213 61.4688L165.213 67.2461Q165.213 68.1719 165.723 68.6846Q166.232 69.1973 167.176 69.1973Q168.131 69.1973 168.638 68.6875Q169.145 68.1777 169.145 67.252L169.145 61.4688L170.275 61.4688ZM176.873 66.0566L173.176 66.0566L173.176 69.0801L177.471 69.0801L177.471 70L172.051 70L172.051 61.4688L177.412 61.4688L177.412 62.3945L173.176 62.3945L173.176 65.1367L176.873 65.1367L176.873 66.0566Z" fill="#8794BA" fill-opacity="1.000000" fill-rule="evenodd"/>
	<path id="WED" d="M223.162 67.3105L223.326 68.4355L223.566 67.4219L225.254 61.4688L226.203 61.4688L227.85 67.4219L228.084 68.4531L228.266 67.3047L229.59 61.4688L230.721 61.4688L228.652 70L227.627 70L225.869 63.7832L225.734 63.1328L225.6 63.7832L223.777 70L222.752 70L220.689 61.4688L221.814 61.4688L223.162 67.3105ZM236.791 66.0566L233.094 66.0566L233.094 69.0801L237.389 69.0801L237.389 70L231.969 70L231.969 61.4688L237.33 61.4688L237.33 62.3945L233.094 62.3945L233.094 65.1367L236.791 65.1367L236.791 66.0566ZM238.789 70L238.789 61.4688L241.197 61.4688Q242.311 61.4688 243.166 61.9609Q244.021 62.4531 244.487 63.3613Q244.953 64.2695 244.959 65.4473L244.959 65.9922Q244.959 67.1992 244.493 68.1074Q244.027 69.0156 243.163 69.502Q242.299 69.9883 241.15 70L238.789 70ZM239.914 62.3945L239.914 69.0801L241.098 69.0801Q242.398 69.0801 243.122 68.2715Q243.846 67.4629 243.846 65.9688L243.846 65.4707Q243.846 64.0176 243.163 63.2119Q242.48 62.4062 241.227 62.3945L239.914 62.3945Z" fill="#8794BA" fill-opacity="1.000000" fill-rule="evenodd"/>
	<path id="THU" d="M294.137 62.3945L291.395 62.3945L291.395 70L290.275 70L290.275 62.3945L287.539 62.3945L287.539 61.4688L294.137 61.4688L294.137 62.3945ZM301.959 70L300.828 70L300.828 66.0566L296.527 66.0566L296.527 70L295.402 70L295.402 61.4688L296.527 61.4688L296.527 65.1367L300.828 65.1367L300.828 61.4688L301.959 61.4688L301.959 70ZM309.963 61.4688L309.963 67.2695Q309.957 68.4766 309.204 69.2441Q308.451 70.0117 307.162 70.1055L306.863 70.1172Q305.463 70.1172 304.631 69.3613Q303.799 68.6055 303.787 67.2812L303.787 61.4688L304.9 61.4688L304.9 67.2461Q304.9 68.1719 305.41 68.6846Q305.92 69.1973 306.863 69.1973Q307.818 69.1973 308.325 68.6875Q308.832 68.1777 308.832 67.252L308.832 61.4688L309.963 61.4688Z" fill="#8794BA" fill-opacity="1.000000" fill-rule="evenodd"/>
	<path id="FRI" d="M362.053 66.2324L358.473 66.2324L358.473 70L357.348 70L357.348 61.4688L362.633 61.4688L362.633 62.3945L358.473 62.3945L358.473 65.3125L362.053 65.3125L362.053 66.2324ZM367.109 66.5488L365.105 66.5488L365.105 70L363.975 70L363.975 61.4688L366.799 61.4688Q368.24 61.4688 369.017 62.125Q369.793 62.7812 369.793 64.0352Q369.793 64.832 369.362 65.4238Q368.932 66.0156 368.164 66.3086L370.168 69.9297L370.168 70L368.961 70L367.109 66.5488ZM365.105 65.6289L366.834 65.6289Q367.672 65.6289 368.167 65.1953Q368.662 64.7617 368.662 64.0352Q368.662 63.2441 368.19 62.8223Q367.719 62.4004 366.828 62.3945L365.105 62.3945L365.105 65.6289ZM372.576 70L371.451 70L371.451 61.4688L372.576 61.4688L372.576 70Z" fill="#8794BA" fill-opacity="1.000000" fill-rule="evenodd"/>
	<path id="SAT" d="M423.828 66.1973Q422.381 65.7812 421.722 65.1748Q421.062 64.5684 421.062 63.6777Q421.062 62.6699 421.868 62.0107Q422.674 61.3516 423.963 61.3516Q424.842 61.3516 425.53 61.6914Q426.219 62.0312 426.597 62.6289Q426.975 63.2266 426.975 63.9355L425.844 63.9355Q425.844 63.1621 425.352 62.7197Q424.859 62.2773 423.963 62.2773Q423.131 62.2773 422.665 62.6436Q422.199 63.0098 422.199 63.6602Q422.199 64.1816 422.642 64.542Q423.084 64.9023 424.147 65.2012Q425.211 65.5 425.812 65.8604Q426.412 66.2207 426.702 66.7012Q426.992 67.1816 426.992 67.832Q426.992 68.8691 426.184 69.4932Q425.375 70.1172 424.021 70.1172Q423.143 70.1172 422.381 69.7803Q421.619 69.4434 421.206 68.8574Q420.793 68.2715 420.793 67.5273L421.924 67.5273Q421.924 68.3008 422.495 68.749Q423.066 69.1973 424.021 69.1973Q424.912 69.1973 425.387 68.834Q425.861 68.4707 425.861 67.8438Q425.861 67.2168 425.422 66.874Q424.982 66.5312 423.828 66.1973ZM433.145 67.7734L429.57 67.7734L428.768 70L427.607 70L430.865 61.4688L431.85 61.4688L435.113 70L433.959 70L433.145 67.7734ZM429.91 66.8477L432.811 66.8477L431.357 62.8574L429.91 66.8477ZM441.4 62.3945L438.658 62.3945L438.658 70L437.539 70L437.539 62.3945L434.803 62.3945L434.803 61.4688L441.4 61.4688L441.4 62.3945Z" fill="#8794BA" fill-opacity="1.000000" fill-rule="evenodd"/>
	<path id="SUN" d="M488.776 66.1973Q487.329 65.7812 486.67 65.1748Q486.011 64.5684 486.011 63.6777Q486.011 62.6699 486.816 62.0107Q487.622 61.3516 488.911 61.3516Q489.79 61.3516 490.479 61.6914Q491.167 62.0312 491.545 62.6289Q491.923 63.2266 491.923 63.9355L490.792 63.9355Q490.792 63.1621 490.3 62.7197Q489.808 62.2773 488.911 62.2773Q488.079 62.2773 487.613 62.6436Q487.147 63.0098 487.147 63.6602Q487.147 64.1816 487.59 64.542Q488.032 64.9023 489.096 65.2012Q490.159 65.5 490.76 65.8604Q491.36 66.2207 491.65 66.7012Q491.94 67.1816 491.94 67.832Q491.94 68.8691 491.132 69.4932Q490.323 70.1172 488.97 70.1172Q488.091 70.1172 487.329 69.7803Q486.567 69.4434 486.154 68.8574Q485.741 68.2715 485.741 67.5273L486.872 67.5273Q486.872 68.3008 487.443 68.749Q488.015 69.1973 488.97 69.1973Q489.86 69.1973 490.335 68.834Q490.81 68.4707 490.81 67.8438Q490.81 67.2168 490.37 66.874Q489.931 66.5312 488.776 66.1973ZM499.388 61.4688L499.388 67.2695Q499.382 68.4766 498.629 69.2441Q497.876 70.0117 496.587 70.1055L496.288 70.1172Q494.888 70.1172 494.056 69.3613Q493.224 68.6055 493.212 67.2812L493.212 61.4688L494.325 61.4688L494.325 67.2461Q494.325 68.1719 494.835 68.6846Q495.345 69.1973 496.288 69.1973Q497.243 69.1973 497.75 68.6875Q498.257 68.1777 498.257 67.252L498.257 61.4688L499.388 61.4688ZM507.72 70L506.589 70L502.294 63.4258L502.294 70L501.163 70L501.163 61.4688L502.294 61.4688L506.601 68.0723L506.601 61.4688L507.72 61.4688L507.72 70Z" fill="#8794BA" fill-opacity="1.000000" fill-rule="evenodd"/>
</svg>
