<svg width="600.000000" height="410.000000" viewBox="0 0 600 410" fill="none" xmlns="http://www.w3.org/2000/svg" xmlns:xlink="http://www.w3.org/1999/xlink">
	<desc>
			Created with Pixso.
	</desc>
	<defs/>
	<rect id="screen-02" width="600.000000" height="410.000000" fill="#FFFFFF" fill-opacity="0"/>
	<rect id="Rectangle 9" width="600.000000" height="410.000000" fill="#FFFFFF" fill-opacity="1.000000"/>
	<rect id="Rectangle 10" x="99.000000" y="72.000000" width="1.000000" height="271.000000" fill="#EEEEF7" fill-opacity="1.000000"/>
	<rect id="Rectangle 11" x="162.000000" y="72.000000" width="1.000000" height="271.000000" fill="#EEEEF7" fill-opacity="1.000000"/>
	<rect id="Rectangle 12" x="225.000000" y="72.000000" width="1.000000" height="271.000000" fill="#EEEEF7" fill-opacity="1.000000"/>
	<rect id="Rectangle 13" x="288.000000" y="72.000000" width="1.000000" height="271.000000" fill="#EEEEF7" fill-opacity="1.000000"/>
	<rect id="Rectangle 14" x="351.000000" y="72.000000" width="1.000000" height="271.000000" fill="#EEEEF7" fill-opacity="1.000000"/>
	<rect id="Rectangle 15" x="414.000000" y="72.000000" width="1.000000" height="271.000000" fill="#EEEEF7" fill-opacity="1.000000"/>
	<rect id="Rectangle 16" x="477.000000" y="72.000000" width="1.000000" height="271.000000" fill="#EEEEF7" fill-opacity="1.000000"/>
	<rect id="Rectangle 17" x="540.000000" y="72.000000" width="1.000000" height="271.000000" fill="#EEEEF7" fill-opacity="1.000000"/>
	<path id="54-65" d="M58.9434 92.7227L59.377 88.4688L63.748 88.4688L63.748 89.4707L60.2969 89.4707L60.0391 91.7969Q60.666 91.4277 61.4629 91.4277Q62.6289 91.4277 63.3145 92.1982Q64 92.9688 64 94.2812Q64 95.5996 63.2881 96.3584Q62.5762 97.1172 61.2988 97.1172Q60.168 97.1172 59.4531 96.4902Q58.7383 95.8633 58.6387 94.7559L59.6641 94.7559Q59.7637 95.4883 60.1855 95.8604Q60.6074 96.2324 61.2988 96.2324Q62.0547 96.2324 62.4854 95.7168Q62.916 95.2012 62.916 94.293Q62.916 93.4375 62.4502 92.9189Q61.9844 92.4004 61.2109 92.4004Q60.502 92.4004 60.0977 92.7109L59.8105 92.9453L58.9434 92.7227ZM69.7598 94.1348L70.9434 94.1348L70.9434 95.0195L69.7598 95.0195L69.7598 97L68.6699 97L68.6699 95.0195L64.7852 95.0195L64.7852 94.3809L68.6055 88.4688L69.7598 88.4688L69.7598 94.1348ZM66.0156 94.1348L68.6699 94.1348L68.6699 89.9512L68.541 90.1855L66.0156 94.1348ZM74.2891 93.8184L71.4297 93.8184L71.4297 92.9336L74.2891 92.9336L74.2891 93.8184ZM79.4863 88.4629L79.4863 89.3828L79.2871 89.3828Q78.0215 89.4062 77.2715 90.1328Q76.5215 90.8594 76.4043 92.1777Q77.0781 91.4043 78.2441 91.4043Q79.3574 91.4043 80.0225 92.1895Q80.6875 92.9746 80.6875 94.2168Q80.6875 95.5352 79.9697 96.3262Q79.252 97.1172 78.0449 97.1172Q76.8203 97.1172 76.0586 96.1768Q75.2969 95.2363 75.2969 93.7539L75.2969 93.3379Q75.2969 90.9824 76.3018 89.7373Q77.3066 88.4922 79.293 88.4629L79.4863 88.4629ZM78.0625 92.3066Q77.5059 92.3066 77.0371 92.6406Q76.5684 92.9746 76.3867 93.4785L76.3867 93.877Q76.3867 94.9316 76.8613 95.5762Q77.3359 96.2207 78.0449 96.2207Q78.7773 96.2207 79.1963 95.6816Q79.6152 95.1426 79.6152 94.2695Q79.6152 93.3906 79.1904 92.8486Q78.7656 92.3066 78.0625 92.3066ZM82.4688 92.7227L82.9023 88.4688L87.2734 88.4688L87.2734 89.4707L83.8223 89.4707L83.5645 91.7969Q84.1914 91.4277 84.9883 91.4277Q86.1543 91.4277 86.8398 92.1982Q87.5254 92.9688 87.5254 94.2812Q87.5254 95.5996 86.8135 96.3584Q86.1016 97.1172 84.8242 97.1172Q83.6934 97.1172 82.9785 96.4902Q82.2637 95.8633 82.1641 94.7559L83.1895 94.7559Q83.2891 95.4883 83.7109 95.8604Q84.1328 96.2324 84.8242 96.2324Q85.5801 96.2324 86.0107 95.7168Q86.4414 95.2012 86.4414 94.293Q86.4414 93.4375 85.9756 92.9189Q85.5098 92.4004 84.7363 92.4004Q84.0273 92.4004 83.623 92.7109L83.3359 92.9453L82.4688 92.7227Z" fill="#8794BA" fill-opacity="1.000000" fill-rule="evenodd"/>
	<path id="45-54" d="M63.0215 150.135L64.2051 150.135L64.2051 151.02L63.0215 151.02L63.0215 153L61.9316 153L61.9316 151.02L58.0469 151.02L58.0469 150.381L61.8672 144.469L63.0215 144.469L63.0215 150.135ZM59.2773 150.135L61.9316 150.135L61.9316 145.951L61.8027 146.186L59.2773 150.135ZM65.6816 148.723L66.1152 144.469L70.4863 144.469L70.4863 145.471L67.0352 145.471L66.7773 147.797Q67.4043 147.428 68.2012 147.428Q69.3672 147.428 70.0527 148.198Q70.7383 148.969 70.7383 150.281Q70.7383 151.6 70.0264 152.358Q69.3145 153.117 68.0371 153.117Q66.9062 153.117 66.1914 152.49Q65.4766 151.863 65.377 150.756L66.4023 150.756Q66.502 151.488 66.9238 151.86Q67.3457 152.232 68.0371 152.232Q68.793 152.232 69.2236 151.717Q69.6543 151.201 69.6543 150.293Q69.6543 149.438 69.1885 148.919Q68.7227 148.4 67.9492 148.4Q67.2402 148.4 66.8359 148.711L66.5488 148.945L65.6816 148.723ZM74.2891 149.818L71.4297 149.818L71.4297 148.934L74.2891 148.934L74.2891 149.818ZM75.7305 148.723L76.1641 144.469L80.5352 144.469L80.5352 145.471L77.084 145.471L76.8262 147.797Q77.4531 147.428 78.25 147.428Q79.416 147.428 80.1016 148.198Q80.7871 148.969 80.7871 150.281Q80.7871 151.6 80.0752 152.358Q79.3633 153.117 78.0859 153.117Q76.9551 153.117 76.2402 152.49Q75.5254 151.863 75.4258 150.756L76.4512 150.756Q76.5508 151.488 76.9727 151.86Q77.3945 152.232 78.0859 152.232Q78.8418 152.232 79.2725 151.717Q79.7031 151.201 79.7031 150.293Q79.7031 149.438 79.2373 148.919Q78.7715 148.4 77.998 148.4Q77.2891 148.4 76.8848 148.711L76.5977 148.945L75.7305 148.723ZM86.5469 150.135L87.7305 150.135L87.7305 151.02L86.5469 151.02L86.5469 153L85.457 153L85.457 151.02L81.5723 151.02L81.5723 150.381L85.3926 144.469L86.5469 144.469L86.5469 150.135ZM82.8027 150.135L85.457 150.135L85.457 145.951L85.3281 146.186L82.8027 150.135Z" fill="#8794BA" fill-opacity="1.000000" fill-rule="evenodd"/>
	<path id="35-44" d="M60.0215 204.207L60.8359 204.207Q61.6035 204.195 62.043 203.803Q62.4824 203.41 62.4824 202.742Q62.4824 201.242 60.9883 201.242Q60.2852 201.242 59.8662 201.644Q59.4473 202.045 59.4473 202.707L58.3633 202.707Q58.3633 201.693 59.1045 201.022Q59.8457 200.352 60.9883 200.352Q62.1953 200.352 62.8809 200.99Q63.5664 201.629 63.5664 202.766Q63.5664 203.322 63.2061 203.844Q62.8457 204.365 62.2246 204.623Q62.9277 204.846 63.3115 205.361Q63.6953 205.877 63.6953 206.621Q63.6953 207.77 62.9453 208.443Q62.1953 209.117 60.9941 209.117Q59.793 209.117 59.04 208.467Q58.2871 207.816 58.2871 206.75L59.377 206.75Q59.377 207.424 59.8164 207.828Q60.2559 208.232 60.9941 208.232Q61.7793 208.232 62.1953 207.822Q62.6113 207.412 62.6113 206.645Q62.6113 205.9 62.1543 205.502Q61.6973 205.104 60.8359 205.092L60.0215 205.092L60.0215 204.207ZM65.6816 204.723L66.1152 200.469L70.4863 200.469L70.4863 201.471L67.0352 201.471L66.7773 203.797Q67.4043 203.428 68.2012 203.428Q69.3672 203.428 70.0527 204.198Q70.7383 204.969 70.7383 206.281Q70.7383 207.6 70.0264 208.358Q69.3145 209.117 68.0371 209.117Q66.9062 209.117 66.1914 208.49Q65.4766 207.863 65.377 206.756L66.4023 206.756Q66.502 207.488 66.9238 207.86Q67.3457 208.232 68.0371 208.232Q68.793 208.232 69.2236 207.717Q69.6543 207.201 69.6543 206.293Q69.6543 205.438 69.1885 204.919Q68.7227 204.4 67.9492 204.4Q67.2402 204.4 66.8359 204.711L66.5488 204.945L65.6816 204.723ZM74.2891 205.818L71.4297 205.818L71.4297 204.934L74.2891 204.934L74.2891 205.818ZM79.8086 206.135L80.9922 206.135L80.9922 207.02L79.8086 207.02L79.8086 209L78.7188 209L78.7188 207.02L74.834 207.02L74.834 206.381L78.6543 200.469L79.8086 200.469L79.8086 206.135ZM76.0645 206.135L78.7188 206.135L78.7188 201.951L78.5898 202.186L76.0645 206.135ZM86.5469 206.135L87.7305 206.135L87.7305 207.02L86.5469 207.02L86.5469 209L85.457 209L85.457 207.02L81.5723 207.02L81.5723 206.381L85.3926 200.469L86.5469 200.469L86.5469 206.135ZM82.8027 206.135L85.457 206.135L85.457 201.951L85.3281 202.186L82.8027 206.135Z" fill="#8794BA" fill-opacity="1.000000" fill-rule="evenodd"/>
	<path id="25-34" d="M64.0352 265L58.4453 265L58.4453 264.221L61.3984 260.939Q62.0547 260.195 62.3037 259.729Q62.5527 259.264 62.5527 258.766Q62.5527 258.098 62.1484 257.67Q61.7441 257.242 61.0703 257.242Q60.2617 257.242 59.8135 257.702Q59.3652 258.162 59.3652 258.982L58.2812 258.982Q58.2812 257.805 59.04 257.078Q59.7988 256.352 61.0703 256.352Q62.2598 256.352 62.9512 256.976Q63.6426 257.6 63.6426 258.637Q63.6426 259.896 62.0371 261.637L59.752 264.115L64.0352 264.115L64.0352 265ZM65.6816 260.723L66.1152 256.469L70.4863 256.469L70.4863 257.471L67.0352 257.471L66.7773 259.797Q67.4043 259.428 68.2012 259.428Q69.3672 259.428 70.0527 260.198Q70.7383 260.969 70.7383 262.281Q70.7383 263.6 70.0264 264.358Q69.3145 265.117 68.0371 265.117Q66.9062 265.117 66.1914 264.49Q65.4766 263.863 65.377 262.756L66.4023 262.756Q66.502 263.488 66.9238 263.86Q67.3457 264.232 68.0371 264.232Q68.793 264.232 69.2236 263.717Q69.6543 263.201 69.6543 262.293Q69.6543 261.438 69.1885 260.919Q68.7227 260.4 67.9492 260.4Q67.2402 260.4 66.8359 260.711L66.5488 260.945L65.6816 260.723ZM74.2891 261.818L71.4297 261.818L71.4297 260.934L74.2891 260.934L74.2891 261.818ZM76.8086 260.207L77.623 260.207Q78.3906 260.195 78.8301 259.803Q79.2695 259.41 79.2695 258.742Q79.2695 257.242 77.7754 257.242Q77.0723 257.242 76.6533 257.644Q76.2344 258.045 76.2344 258.707L75.1504 258.707Q75.1504 257.693 75.8916 257.022Q76.6328 256.352 77.7754 256.352Q78.9824 256.352 79.668 256.99Q80.3535 257.629 80.3535 258.766Q80.3535 259.322 79.9932 259.844Q79.6328 260.365 79.0117 260.623Q79.7148 260.846 80.0986 261.361Q80.4824 261.877 80.4824 262.621Q80.4824 263.77 79.7324 264.443Q78.9824 265.117 77.7812 265.117Q76.5801 265.117 75.8271 264.467Q75.0742 263.816 75.0742 262.75L76.1641 262.75Q76.1641 263.424 76.6035 263.828Q77.043 264.232 77.7812 264.232Q78.5664 264.232 78.9824 263.822Q79.3984 263.412 79.3984 262.645Q79.3984 261.9 78.9414 261.502Q78.4844 261.104 77.623 261.092L76.8086 261.092L76.8086 260.207ZM86.5469 262.135L87.7305 262.135L87.7305 263.02L86.5469 263.02L86.5469 265L85.457 265L85.457 263.02L81.5723 263.02L81.5723 262.381L85.3926 256.469L86.5469 256.469L86.5469 262.135ZM82.8027 262.135L85.457 262.135L85.457 257.951L85.3281 258.186L82.8027 262.135Z" fill="#8794BA" fill-opacity="1.000000" fill-rule="evenodd"/>
	<path id="18-24" d="M62.0078 321L60.918 321L60.918 313.775L58.7324 314.578L58.7324 313.594L61.8379 312.428L62.0078 312.428L62.0078 321ZM70.3574 314.695Q70.3574 315.334 70.0205 315.832Q69.6836 316.33 69.1094 316.611Q69.7773 316.898 70.167 317.449Q70.5566 318 70.5566 318.697Q70.5566 319.805 69.8096 320.461Q69.0625 321.117 67.8438 321.117Q66.6133 321.117 65.8721 320.458Q65.1309 319.799 65.1309 318.697Q65.1309 318.006 65.5088 317.449Q65.8867 316.893 66.5547 316.605Q65.9863 316.324 65.6582 315.826Q65.3301 315.328 65.3301 314.695Q65.3301 313.617 66.0215 312.984Q66.7129 312.352 67.8438 312.352Q68.9688 312.352 69.6631 312.984Q70.3574 313.617 70.3574 314.695ZM69.4727 318.674Q69.4727 317.959 69.0186 317.508Q68.5645 317.057 67.832 317.057Q67.0996 317.057 66.6572 317.502Q66.2148 317.947 66.2148 318.674Q66.2148 319.4 66.6455 319.816Q67.0762 320.232 67.8438 320.232Q68.6055 320.232 69.0391 319.813Q69.4727 319.395 69.4727 318.674ZM67.8438 313.242Q67.2051 313.242 66.8096 313.638Q66.4141 314.033 66.4141 314.713Q66.4141 315.363 66.8037 315.765Q67.1934 316.166 67.8438 316.166Q68.4941 316.166 68.8838 315.765Q69.2734 315.363 69.2734 314.713Q69.2734 314.062 68.8691 313.652Q68.4648 313.242 67.8438 313.242ZM74.2891 317.818L71.4297 317.818L71.4297 316.934L74.2891 316.934L74.2891 317.818ZM80.8223 321L75.2324 321L75.2324 320.221L78.1855 316.939Q78.8418 316.195 79.0908 315.729Q79.3398 315.264 79.3398 314.766Q79.3398 314.098 78.9355 313.67Q78.5312 313.242 77.8574 313.242Q77.0488 313.242 76.6006 313.702Q76.1523 314.162 76.1523 314.982L75.0684 314.982Q75.0684 313.805 75.8271 313.078Q76.5859 312.352 77.8574 312.352Q79.0469 312.352 79.7383 312.976Q80.4297 313.6 80.4297 314.637Q80.4297 315.896 78.8242 317.637L76.5391 320.115L80.8223 320.115L80.8223 321ZM86.5469 318.135L87.7305 318.135L87.7305 319.02L86.5469 319.02L86.5469 321L85.457 321L85.457 319.02L81.5723 319.02L81.5723 318.381L85.3926 312.469L86.5469 312.469L86.5469 318.135ZM82.8027 318.135L85.457 318.135L85.457 313.951L85.3281 314.186L82.8027 318.135Z" fill="#8794BA" fill-opacity="1.000000" fill-rule="evenodd"/>
	<path id="Rectangle 18" d="M99 79L355.5 79C358.538 79 361 81.4625 361 84.5C361 87.5375 358.538 90 355.5 90L99 90L99 79Z" fill="#EF2A82" fill-opacity="1.000000" fill-rule="evenodd"/>
	<path id="Rectangle 20" d="M99 136L268.5 136C271.538 136 274 138.462 274 141.5C274 144.538 271.538 147 268.5 147L99 147L99 136Z" fill="#EF2A82" fill-opacity="1.000000" fill-rule="evenodd"/>
	<path id="Rectangle 22" d="M99 193L109.5 193C112.538 193 115 195.462 115 198.5C115 201.538 112.538 204 109.5 204L99 204L99 193Z" fill="#EF2A82" fill-opacity="1.000000" fill-rule="evenodd"/>
	<path id="Rectangle 24" d="M99 250L141.5 250C144.538 250 147 252.462 147 255.5C147 258.538 144.538 261 141.5 261L99 261L99 250Z" fill="#EF2A82" fill-opacity="1.000000" fill-rule="evenodd"/>
	<path id="Rectangle 26" d="M99 307L301.5 307C304.538 307 307 309.462 307 312.5C307 315.538 304.538 318 301.5 318L99 318L99 307Z" fill="#EF2A82" fill-opacity="1.000000" fill-rule="evenodd"/>
	<path id="Rectangle 19" d="M99 93L241.5 93C244.538 93 247 95.4625 247 98.5C247 101.538 244.538 104 241.5 104L99 104L99 93Z" fill="#0088F0" fill-opacity="1.000000" fill-rule="evenodd"/>
	<path id="Rectangle 21" d="M99 150L301.5 150C304.538 150 307 152.462 307 155.5C307 158.538 304.538 161 301.5 161L99 161L99 150Z" fill="#0088F0" fill-opacity="1.000000" fill-rule="evenodd"/>
	<path id="Rectangle 23" d="M99 207L141.5 207C144.538 207 147 209.462 147 212.5C147 215.538 144.538 218 141.5 218L99 218L99 207Z" fill="#0088F0" fill-opacity="1.000000" fill-rule="evenodd"/>
	<path id="Rectangle 25" d="M99 264L432.5 264C435.538 264 438 266.462 438 269.5C438 272.538 435.538 275 432.5 275L99 275L99 264Z" fill="#0088F0" fill-opacity="1.000000" fill-rule="evenodd"/>
	<path id="Rectangle 27" d="M99 321L489.5 321C492.538 321 495 323.462 495 326.5C495 329.538 492.538 332 489.5 332L99 332L99 321Z" fill="#0088F0" fill-opacity="1.000000" fill-rule="evenodd"/>
</svg>
