<svg width="2162.742188" height="1459.460938" viewBox="0 0 2162.74 1459.46" fill="none" xmlns="http://www.w3.org/2000/svg" xmlns:xlink="http://www.w3.org/1999/xlink">
	<desc>
			Created with Pixso.
	</desc>
	<defs/>
	<mask id="mask6_2591" mask-type="alpha" maskUnits="userSpaceOnUse" x="0.000000" y="0.000000" width="2162.742188" height="1459.460938">
		<rect id="Прямоугольник 3" width="2162.742188" height="1459.460938" fill="#C4C4C4" fill-opacity="1.000000"/>
	</mask>
	<g mask="url(#mask6_2591)">
		<g opacity="0.070000">
			<path id="Subtract" d="M242.106 -254.083C355.216 -254.083 455.034 -197.177 514.493 -110.432L283.356 120.706L147.524 -15.1262C131.415 -31.2354 105.297 -31.2354 89.1877 -15.1262L-78.8611 152.923C-84.7667 128.217 -87.894 102.432 -87.894 75.917C-87.894 -106.337 59.852 -254.083 242.106 -254.083ZM312.524 208.21L553.715 -32.9811C565.629 1.11267 572.106 37.7584 572.106 75.917C572.106 258.171 424.36 405.917 242.106 405.917C118.273 405.917 10.3716 337.71 -46.0801 236.814L118.356 72.3784L254.188 208.21C270.297 224.319 296.415 224.319 312.524 208.21Z" fill="#8794BA" fill-opacity="1.000000" fill-rule="evenodd"/>
		</g>
	</g>
	<g mask="url(#mask6_2591)">
		<g opacity="0.070000">
			<path id="Subtract" d="M1251.11 -31.082C1497.55 -31.082 1715.03 92.9048 1844.58 281.903L1340.98 785.503L1045.03 489.554C1009.93 454.456 953.028 454.456 917.929 489.554L551.786 855.697C538.919 801.868 532.105 745.689 532.105 687.918C532.105 290.825 854.013 -31.082 1251.11 -31.082ZM1404.53 976.157L1930.04 450.652C1955.99 524.935 1970.11 604.779 1970.11 687.918C1970.11 1085.01 1648.2 1406.92 1251.11 1406.92C981.301 1406.92 746.206 1258.31 623.209 1038.48L981.48 680.208L1277.43 976.157C1312.53 1011.26 1369.43 1011.26 1404.53 976.157Z" fill="#8794BA" fill-opacity="1.000000" fill-rule="evenodd"/>
		</g>
	</g>
</svg>
