<svg width="40.000000" height="40.000000" viewBox="0 0 40 40" fill="none" xmlns="http://www.w3.org/2000/svg" xmlns:xlink="http://www.w3.org/1999/xlink">
	<desc>
			Created with Pixso.
	</desc>
	<defs/>
	<path id="Subtract" d="M20 0C26.8552 0 32.9048 3.44885 36.5083 8.70618L22.5 22.7145L14.2678 14.4822C13.2915 13.5059 11.7085 13.5059 10.7322 14.4822L0.547363 24.667C0.189453 23.1697 0 21.6069 0 20C0 8.95435 8.95435 0 20 0ZM24.2678 28.0178L38.8855 13.4001C39.6074 15.4664 40 17.6874 40 20C40 31.0457 31.0457 40 20 40C12.4951 40 5.95557 35.8662 2.53418 29.7513L12.5 19.7855L20.7322 28.0178C21.7085 28.9941 23.2915 28.9941 24.2678 28.0178Z" fill="#EF2A82" fill-opacity="1.000000" fill-rule="evenodd"/>
</svg>
