<svg preserveAspectRatio="none" width="1700.000000" height="1076.000000" viewBox="0 0 1700 1076" fill="none" xmlns="http://www.w3.org/2000/svg" xmlns:xlink="http://www.w3.org/1999/xlink">
	<desc>
			Created with Pixso.
	</desc>
	<defs>
		<clipPath id="clip10_3253">
			<rect id="фрейм 1" width="1700.000000" height="1076.000000" fill="white" fill-opacity="0"/>
		</clipPath>
	</defs>
	<rect id="фрейм 1" width="1700.000000" height="1076.000000" fill="#FFFFFF" fill-opacity="0"/>
	<g clip-path="url(#clip10_3253)">
		<mask id="mask10_3250" mask-type="alpha" maskUnits="userSpaceOnUse" x="0.000000" y="0.000000" width="1700.000000" height="1076.000000">
			<rect id="Маска для фона" width="1700.000000" height="1076.000000" fill="#C4C4C4" fill-opacity="1.000000"/>
		</mask>
		<g mask="url(#mask10_3250)">
			<g opacity="0.070000">
				<path id="Subtract" d="M1339 223C1585.44 223 1802.93 346.987 1932.47 535.985L1428.88 1039.58L1132.93 743.636C1097.83 708.538 1040.92 708.538 1005.82 743.636L639.681 1109.78C626.814 1055.95 620 999.771 620 942C620 544.907 941.907 223 1339 223ZM1492.43 1230.24L2017.93 704.734C2043.89 779.017 2058 858.861 2058 942C2058 1339.09 1736.09 1661 1339 1661C1069.2 1661 834.1 1512.39 711.104 1292.56L1069.38 934.29L1365.32 1230.24C1400.42 1265.34 1457.33 1265.34 1492.43 1230.24Z" fill="#8794BA" fill-opacity="1.000000" fill-rule="evenodd"/>
			</g>
		</g>
		<g mask="url(#mask10_3250)">
			<g opacity="0.070000">
				<path id="Subtract" d="M330 -0.000854492C443.11 -0.000854492 542.928 56.9055 602.387 143.65L371.25 374.788L235.418 238.956C219.309 222.847 193.191 222.847 177.082 238.956L9.0329 407.005C3.12732 382.299 0 356.514 0 329.999C0 147.745 147.746 -0.000854492 330 -0.000854492ZM400.418 462.292L641.609 221.101C653.523 255.195 660 291.841 660 329.999C660 512.253 512.254 659.999 330 659.999C206.168 659.999 98.2657 591.792 41.814 490.897L206.25 326.461L342.082 462.292C358.191 478.402 384.309 478.402 400.418 462.292Z" fill="#8794BA" fill-opacity="1.000000" fill-rule="evenodd"/>
			</g>
		</g>
	</g>
</svg>
